<?xml version="1.0" encoding="UTF-8"?>
<svg width="24px" height="24px" viewBox="0 0 24 24" version="1.1" xmlns="http://www.w3.org/2000/svg" xmlns:xlink="http://www.w3.org/1999/xlink">
    <!-- Generator: sketchtool 59.1 (101010) - https://sketch.com -->
    <title>DF27CD79-245F-4B55-B8A6-BE49F9CE3C59@5.00x</title>
    <desc>Created with sketchtool.</desc>
    <g id="Symbols" stroke="none" stroke-width="1" fill="none" fill-rule="evenodd">
        <g id="varsler/aksjonspunkt" transform="translate(-11.000000, -8.000000)">
            <g id="Group-7">
                <g id="alertstripe/-linje/-advarsel" transform="translate(10.000000, 6.000000)">
                    <g id="icon/-feedback/-report-problem-circle-copy-2">
                        <path d="M14.7888544,3.57770876 L24.5527864,23.1055728 C25.0467649,24.0935298 24.6463162,25.2948759 23.6583592,25.7888544 C23.3806483,25.9277098 23.0744222,26 22.763932,26 L3.23606798,26 C2.13149848,26 1.23606798,25.1045695 1.23606798,24 C1.23606798,23.6895098 1.30835816,23.3832837 1.4472136,23.1055728 L11.2111456,3.57770876 C11.7051241,2.58975177 12.9064702,2.18930308 13.8944272,2.68328157 C14.281482,2.87680898 14.595327,3.19065396 14.7888544,3.57770876 Z" id="Rectangle" fill="#FFA733"></path>
                        <g id="Group" transform="translate(11.500000, 8.000000)" fill="#3E3832">
                            <path d="M1.52716578,13.9998332 C1.51816628,13.9998332 1.50916678,13.9998332 1.50016728,13.9998332 C0.682712735,13.9998332 0.0137499352,13.3458695 0.000250685923,12.5269151 C-0.01474848,11.6989611 0.64521482,11.0149992 1.47316878,11.0014999 C1.48216828,11.0014999 1.49116778,11 1.50016728,11 C2.31762182,11 2.9850847,11.6554636 3.00008387,12.474418 C3.01508303,13.302372 2.35361982,13.984834 1.52716578,13.9998332 Z" id="Path"></path>
                            <path d="M1.5,0 C2.05228475,0 2.5,0.44771525 2.5,1 L2.5,8 C2.5,8.55228475 2.05228475,9 1.5,9 C0.94771525,9 0.5,8.55228475 0.5,8 L0.5,1 C0.5,0.44771525 0.94771525,0 1.5,0 Z" id="Rectangle" fill-rule="nonzero"></path>
                        </g>
                    </g>
                </g>
            </g>
        </g>
    </g>
</svg>