<?xml version="1.0" encoding="UTF-8"?>
<svg width="20px" height="20px" viewBox="0 0 20 20" version="1.1" xmlns="http://www.w3.org/2000/svg" xmlns:xlink="http://www.w3.org/1999/xlink">
    <!-- Generator: Sketch 60.1 (88133) - https://sketch.com -->
    <title>Icon/Action icon/Other_24 normal</title>
    <desc>Created with Sketch.</desc>
    <g id="Struktur-på-hele-fpsak" stroke="none" stroke-width="1" fill="none" fill-rule="evenodd">
        <g id="Visittkort-Forelder-1" transform="translate(-391.000000, -18.000000)" fill="#3E3832">
            <g id="Group-4" transform="translate(32.000000, 16.000000)">
                <g id="Icon/Action-icon/Other_24-normal" transform="translate(359.000000, 2.000000)">
                    <path d="M10,8.33333333 C9.08333333,8.33333333 8.33333333,9.08333333 8.33333333,10 C8.33333333,10.9166667 9.08333333,11.6666667 10,11.6666667 C10.9166667,11.6666667 11.6666667,10.9166667 11.6666667,10 C11.6666667,9.08333333 10.9166667,8.33333333 10,8.33333333 Z M5.83333333,8.33333333 C4.91666667,8.33333333 4.16666667,9.08333333 4.16666667,10 C4.16666667,10.9166667 4.91666667,11.6666667 5.83333333,11.6666667 C6.75,11.6666667 7.5,10.9166667 7.5,10 C7.5,9.08333333 6.75,8.33333333 5.83333333,8.33333333 Z M10,0 C4.5,0 0,4.5 0,10 C0,15.5 4.5,20 10,20 C15.5,20 20,15.5 20,10 C20,4.5 15.5,0 10,0 Z M10,18.3333333 C5.41666667,18.3333333 1.66666667,14.5833333 1.66666667,10 C1.66666667,5.41666667 5.41666667,1.66666667 10,1.66666667 C14.5833333,1.66666667 18.3333333,5.41666667 18.3333333,10 C18.3333333,14.5833333 14.5833333,18.3333333 10,18.3333333 Z M14.1666667,8.33333333 C13.25,8.33333333 12.5,9.08333333 12.5,10 C12.5,10.9166667 13.25,11.6666667 14.1666667,11.6666667 C15.0833333,11.6666667 15.8333333,10.9166667 15.8333333,10 C15.8333333,9.08333333 15.0833333,8.33333333 14.1666667,8.33333333 Z" id="Shape"></path>
                </g>
            </g>
        </g>
    </g>
</svg>