<?xml version="1.0" encoding="utf-8"?>
<!-- Generator: Adobe Illustrator 16.0.0, SVG Export Plug-In . SVG Version: 6.00 Build 0)  -->
<!DOCTYPE svg PUBLIC "-//W3C//DTD SVG 1.1//EN" "http://www.w3.org/Graphics/SVG/1.1/DTD/svg11.dtd">
<svg version="1.1" id="Filled_Version" xmlns="http://www.w3.org/2000/svg" xmlns:xlink="http://www.w3.org/1999/xlink" x="0px"
	 y="0px" width="24px" height="24px" viewBox="0 0 24 24" enable-background="new 0 0 24 24" xml:space="preserve">
<path d="M16.498,3h-4.499c-0.553,0-1,0.448-1,1c0,0.553,0.447,1,1,1h4.499c3.188,0,5.501,2.104,5.501,5c0,2.897-2.313,5-5.501,5
	H3.413l3.293-3.293c0.391-0.391,0.391-1.023,0-1.414s-1.023-0.391-1.414,0l-5,5c-0.387,0.386-0.391,1.024,0,1.415l5,4.999
	C5.487,21.902,5.743,22,5.999,22s0.512-0.098,0.707-0.293c0.391-0.391,0.391-1.023,0-1.414L3.413,17h13.085
	c4.276,0,7.501-3.009,7.501-7C23.999,6.01,20.774,3,16.498,3z"/>
</svg>