<?xml version="1.0" encoding="utf-8"?>
<!-- Generator: Adobe Illustrator 16.0.0, SVG Export Plug-In . SVG Version: 6.00 Build 0)  -->
<!DOCTYPE svg PUBLIC "-//W3C//DTD SVG 1.1//EN" "http://www.w3.org/Graphics/SVG/1.1/DTD/svg11.dtd">
<svg version="1.1" id="Filled_Version" xmlns="http://www.w3.org/2000/svg" xmlns:xlink="http://www.w3.org/1999/xlink" x="0px"
	 y="0px" width="24px" height="24px" viewBox="0 0 24 24" enable-background="new 0 0 24 24" xml:space="preserve">
<g>
	<path d="M0.326,10.486c-0.189,0.078-0.312,0.263-0.309,0.469c0.002,0.203,0.128,0.385,0.319,0.459l8.302,3.229L23.167,1.052
		L0.326,10.486z"/>
	<path d="M9.027,15.648l-0.01-0.01v6.81c0,0.274,0.221,0.5,0.5,0.5c0.174,0,0.341-0.092,0.432-0.248l3.287-5.636l6.04,3.321
		c0.142,0.08,0.311,0.081,0.448,0.018c0.144-0.065,0.248-0.194,0.281-0.349l3.978-18.396L9.027,15.648z"/>
</g>
</svg>