<?xml version="1.0" encoding="UTF-8"?>
<svg width="24px" height="24px" viewBox="0 0 24 24" version="1.1" xmlns="http://www.w3.org/2000/svg" xmlns:xlink="http://www.w3.org/1999/xlink">
    <defs>
        <path d="M22.57536,0.479999952 C22.84032,0.479999952 23.05536,0.695039953 23.05536,0.959039954 L23.05536,0.959039954 L23.05536,3.83903997 C23.05536,3.96671997 23.00544,4.08863997 22.9152,4.17887997 L22.9152,4.17887997 L22.09536,4.99871997 L22.09536,6.23999998 C22.09536,6.50495998 21.88032,6.71999998 21.61536,6.71999998 L21.61536,6.71999998 L20.37408,6.71999998 L20.17536,6.91871998 L20.17536,8.15999998 C20.17536,8.42495999 19.96032,8.63999999 19.69536,8.63999999 L19.69536,8.63999999 L18.45408,8.63999999 L18.25536,8.83871999 L18.25536,10.08 C18.25536,10.34496 18.04032,10.56 17.77536,10.56 L17.77536,10.56 L16.53408,10.56 L13.76256,13.33248 C14.19552,14.27424 14.41536,15.2784 14.41536,16.32 C14.41536,20.29056 11.18592,23.52 7.21535998,23.52 C3.24479996,23.52 0.0153599501,20.29056 0.0153599501,16.32 C0.0153599501,12.34944 3.24479996,9.11999999 7.21535998,9.11999999 C8.25695998,9.11999999 9.26015999,9.33983999 10.20288,9.77279999 L10.20288,9.77279999 L19.35552,0.620159953 C19.44576,0.530879952 19.56768,0.479999952 19.69536,0.479999952 L19.69536,0.479999952 Z M22.09536,1.43999996 L19.89408,1.43999996 L10.63968,10.69344 C10.49088,10.84032 10.26336,10.8768 10.07904,10.77984 C9.18239999,10.3152 8.21951998,10.07904 7.21535998,10.07904 C3.77471997,10.07904 0.975359954,12.8784 0.975359954,16.31904 C0.975359954,19.75968 3.77471997,22.55904 7.21535998,22.55904 C10.656,22.55904 13.45536,19.75968 13.45536,16.31904 C13.45536,15.31488 13.2192,14.352 12.75456,13.45632 C12.6576,13.27104 12.69312,13.04352 12.84096,12.89568 L12.84096,12.89568 L15.99552,9.74015999 C16.08576,9.65087999 16.20768,9.59999999 16.33536,9.59999999 L16.33536,9.59999999 L17.29536,9.59999999 L17.29536,8.63999999 C17.29536,8.51231999 17.34528,8.39039998 17.43552,8.30015998 L17.43552,8.30015998 L17.91552,7.82015998 C18.00576,7.73087998 18.12768,7.67999998 18.25536,7.67999998 L18.25536,7.67999998 L19.21536,7.67999998 L19.21536,6.71999998 C19.21536,6.59231998 19.26528,6.47039998 19.35552,6.38015998 L19.35552,6.38015998 L19.83552,5.90015997 C19.92576,5.81087997 20.04768,5.75999997 20.17536,5.75999997 L20.17536,5.75999997 L21.13536,5.75999997 L21.13536,4.79999997 C21.13536,4.67231997 21.18528,4.55039997 21.27552,4.46111997 L21.27552,4.46111997 L22.09536,3.64127997 L22.09536,1.43999996 Z M5.29535997,16.32 C6.35423998,16.32 7.21535998,17.18112 7.21535998,18.24 C7.21535998,19.29888 6.35423998,20.16 5.29535997,20.16 C4.23647997,20.16 3.37535996,19.29888 3.37535996,18.24 C3.37535996,17.18112 4.23647997,16.32 5.29535997,16.32 Z M5.29535997,17.28 C4.76639997,17.28 4.33535997,17.71008 4.33535997,18.24 C4.33535997,18.76992 4.76639997,19.2 5.29535997,19.2 C5.82431997,19.2 6.25535998,18.76992 6.25535998,18.24 C6.25535998,17.71008 5.82431997,17.28 5.29535997,17.28 Z" id="path-1"></path>
    </defs>
      <g stroke="#b7b1a9" stroke-linecap="round" stroke-linejoin="round" stroke-miterlimit="10" fill="none">
        <g id="Outline/01-Edition/key-1" transform="translate(12.000000, 12.000000) scale(1, -1) rotate(-90.000000) translate(-12.000000, -12.000000) ">
           <path d="M20.516.5l-9.786 9.787c-.963-.5-2.055-.787-3.214-.787-3.866 0-7 3.133-7 7s3.134 7 7 7c3.865 0 7-3.133 7-7 0-1.16-.287-2.252-.786-3.213l3.286-3.287h1.5v-1.5l.5-.5h1.5v-1.5l.5-.5h1.5v-1.5l1-1v-3h-3z"/>
           <circle cx="5.516" cy="18.5" r="1.5"/>
        </g>
    </g>
</svg>