<?xml version="1.0" encoding="utf-8"?>
<!-- Generator: Adobe Illustrator 17.1.0, SVG Export Plug-In . SVG Version: 6.00 Build 0)  -->
<!DOCTYPE svg PUBLIC "-//W3C//DTD SVG 1.1//EN" "http://www.w3.org/Graphics/SVG/1.1/DTD/svg11.dtd">
<svg version="2" id="Filled_Version" xmlns="http://www.w3.org/2000/svg" xmlns:xlink="http://www.w3.org/1999/xlink" x="0px"
	 y="0px" width="24px" height="24px" viewBox="0 0 24 24" enable-background="new 0 0 24 24" xml:space="preserve">
<g>
	<path d="M20.661,4.822c-2.05-1.912-4.721-2.914-7.527-2.815c-2.92,0.103-5.71,1.466-7.653,3.74
		c-1.253,1.467-2.062,3.201-2.39,5.063L1.839,8.924c-0.306-0.46-0.926-0.586-1.387-0.279c-0.46,0.305-0.586,0.926-0.279,1.386
		l2.991,4.506c0.357,0.566,1.221,0.598,1.634,0.049l3.457-3.935c0.365-0.415,0.324-1.047-0.091-1.412
		C7.748,8.875,7.117,8.916,6.752,9.33l-1.705,1.94C5.302,9.714,5.96,8.264,7.001,7.046c1.58-1.85,3.841-2.957,6.202-3.04
		c2.269-0.083,4.433,0.73,6.094,2.279c1.66,1.549,2.618,3.65,2.697,5.92c0.08,2.269-0.729,4.433-2.277,6.094
		c-1.549,1.66-3.652,2.618-5.921,2.697c-0.552,0.02-0.983,0.482-0.965,1.034c0.019,0.54,0.462,0.965,1,0.965
		c0.012,0,0.023,0,0.035,0c2.803-0.098,5.401-1.281,7.312-3.332c1.915-2.052,2.914-4.726,2.815-7.527
		C23.895,9.332,22.711,6.735,20.661,4.822z"/>
	<path d="M13.002,6.494c-0.552,0-1,0.448-1,1v6.507h6.496c0.552,0,1-0.448,1-1c0-0.553-0.448-1-1-1h-4.496V7.494
		C14.002,6.942,13.555,6.494,13.002,6.494z"/>
</g>
</svg>