<?xml version="1.0" encoding="UTF-8"?>
<svg width="20px" height="16px" viewBox="0 0 20 16" version="1.1" xmlns="http://www.w3.org/2000/svg" xmlns:xlink="http://www.w3.org/1999/xlink">
    <!-- Generator: Sketch 44.1 (41455) - http://www.bohemiancoding.com/sketch -->
    <title>Verge</title>
    <desc>Created with Sketch.</desc>
    <defs></defs>
    <g id="Symbols" stroke="none" stroke-width="1" fill="none" fill-rule="evenodd" stroke-linejoin="round">
        <g id="Verge" transform="translate(-3.000000, -4.000000)" stroke="#3C352A">
            <g transform="translate(4.000000, 5.000000)" id="Stroke-1273-+-Stroke-1274-Copy">
                <g>
                    <path d="M5.939175,13.6315789 L11.624925,13.6315789 L11.624925,10.3157895 C11.624925,9.94736842 9.374925,8.84210526 7.499925,8.10526316 L7.499925,6.63157895 C7.499925,6.63157895 8.249925,6.37368421 8.249925,4.78947368 C8.771175,4.78947368 8.999925,3.31578947 8.273925,3.31578947 C8.273925,3.15957895 8.848425,2.352 8.624925,1.47368421 C8.249925,-2.22044605e-16 4.499925,-2.22044605e-16 4.124925,1.47368421 C2.546175,1.15610526 3.749925,3.10357895 3.749925,3.31578947 C2.999925,3.31578947 3.227925,4.78947368 3.749925,4.78947368 C3.749925,6.37368421 4.499925,6.63157895 4.499925,6.63157895 L4.499925,8.10526316 C2.624925,8.84210526 0.374925,9.94736842 0.374925,10.3157895 L0.374925,13.6315789 L5.939175,13.6315789 L5.939175,13.6315789 Z" id="Stroke-1273"></path>
                    <path d="M13.5,13.6315789 L17.625,13.6315789 L17.625,10.3157895 C17.625,9.94736842 15.75,9.43157895 14.25,8.84210526 L14.25,7.73684211 C14.25,7.73684211 15,7.53052632 15,6.26315789 C15.41775,6.26315789 15.5805,4.78947368 15,4.78947368 C15,4.66494737 15.6075,4.00326316 15.375,3.31578947 C15,2.21052632 12,2.21052632 11.625,3.31578947 C10.36125,3.06157895 11.25,4.62 11.25,4.78947368 C10.65,4.78947368 10.83225,6.26315789 11.25,6.26315789 C11.25,7.53052632 12,7.73684211 12,7.73684211 L12,8.47368421" id="Stroke-1274" stroke-linecap="round"></path>
                </g>
            </g>
        </g>
    </g>
</svg>