<?xml version="1.0" encoding="UTF-8"?>
<svg width="32px" height="32px" viewBox="0 0 32 32" version="1.1" xmlns="http://www.w3.org/2000/svg" xmlns:xlink="http://www.w3.org/1999/xlink">
    <!-- Generator: Sketch 48.2 (47327) - http://www.bohemiancoding.com/sketch -->
    <title>Arbeidsgiver</title>
    <desc>Created with Sketch.</desc>
    <defs></defs>
    <g id="Symbols" stroke="none" stroke-width="1" fill="none" fill-rule="evenodd">
        <g id="Arbeidsgiver">
            <circle id="Oval-2" fill="#005B82" cx="16" cy="16" r="16"></circle>
            <g id="Filled_Version" transform="translate(6.000000, 4.000000)" fill="#FFFFFF" fill-rule="nonzero">
                <g id="business-man-3">
                    <path d="M19.9326435,16.372067 C19.2985255,15.4195887 17.6546763,14.7906755 15.7523221,14.0620035 C15.3645645,13.9136668 14.9707347,13.7627276 14.5821097,13.6074511 C14.5699651,13.6022463 14.5560857,13.6039812 14.5430737,13.5996439 C14.1995569,13.1841274 13.7762332,12.8215263 13.3650541,12.622009 L13.0119952,12.4424434 L13.0119952,11.1880868 C13.4006202,10.8653892 14.2325206,10.0204767 14.3305444,8.64033742 C14.5300617,8.47291637 14.6888081,8.17971266 14.7807595,7.79108763 C14.9143494,7.22289702 14.8813856,6.4812131 14.4277006,6.03620274 C14.4519897,5.97287768 14.4806161,5.90348036 14.5066401,5.83668543 C14.8414822,4.99871271 15.4643232,3.43814034 15.2196976,2.21327753 C14.9316987,0.77675287 12.9061642,0.220706792 11.2588452,0.181670796 C9.82752534,0.146104666 8.09259218,0.467067301 7.55910023,1.44643707 C7.04035522,1.5054248 6.64132059,1.71968904 6.36893608,2.08749487 C5.61597509,3.10329824 6.16334651,4.90849619 6.45741768,5.87745636 C6.47216461,5.92603449 6.48691154,5.97548008 6.500791,6.02145581 C6.04450358,6.4551891 5.96643159,7.20294529 6.11476838,7.83185856 C6.20064757,8.19879693 6.35071929,8.47551877 6.54069447,8.63946995 C6.63438086,10.0152719 7.43245011,10.8593169 7.80719567,11.182882 L7.80719567,12.454588 L7.51399197,12.6176717 C7.09327068,12.8223938 6.66040486,13.2040791 6.31428569,13.6395473 C5.92652813,13.7939564 5.53443324,13.9440281 5.14754314,14.0914974 C3.25473106,14.8106272 1.62042403,15.4326007 0.99324569,16.3729345 C0.0659239162,17.762616 0.00173138932,20.4430877 -3.54383852e-06,20.5567258 C-0.001738477,20.6738338 0.0425023186,20.785737 0.124044177,20.8681463 C0.204718569,20.9522906 0.316621758,20.9991338 0.433729746,20.9991338 L20.3854611,20.9991338 C20.621412,20.9991338 20.814857,20.8100261 20.8191944,20.5749426 C20.8209293,20.460437 20.8643026,17.7695557 19.9326435,16.372067 Z M9.54212883,15.4933234 L10.4148002,14.9910602 L11.277062,15.4638295 L11.277062,15.7448887 C11.277062,16.2228628 10.8875695,16.6123553 10.4095954,16.6123553 C9.93162133,16.6123553 9.54212883,16.2228628 9.54212883,15.7448887 L9.54212883,15.4933234 Z M6.54589927,14.9468195 C6.72633232,14.4046528 7.27804106,13.7497156 7.80719567,13.4443673 L7.80719567,13.5762223 C7.80719567,13.6907278 7.8531714,13.8017636 7.93384579,13.8833054 C8.22878443,14.1773766 8.75967398,14.4488936 9.29490086,14.633664 L6.01414225,16.529946 L6.54589927,14.9468195 Z M10.4095954,20.5654005 L8.63822866,20.5654005 C9.02685369,19.2546585 9.84747707,17.5292675 10.4625109,17.5292675 C11.0680025,17.5292675 11.7767227,19.2624657 12.0777336,20.5654005 L10.4095954,20.5654005 Z M11.9337342,14.8375187 C11.9285294,14.8340488 11.9241921,14.8297115 11.9189873,14.8262416 L11.8331081,14.7785309 L11.5702657,14.6275917 C12.0968179,14.4367491 12.6042859,14.1608947 12.8836101,13.882438 C12.9660194,13.8017636 13.0119952,13.6907278 13.0119952,13.5762223 L13.0119952,13.414006 C13.548957,13.6898604 14.1691956,14.3968456 14.3530985,14.945952 L14.8787832,16.5351508 L11.9337342,14.8375187 Z" id="Shape"></path>
                </g>
            </g>
        </g>
    </g>
</svg>