<?xml version="1.0" encoding="UTF-8"?>
<svg width="24px" height="25px" viewBox="0 0 24 25" version="1.1" xmlns="http://www.w3.org/2000/svg" xmlns:xlink="http://www.w3.org/1999/xlink">
    <!-- Generator: Sketch 52.2 (67145) - http://www.bohemiancoding.com/sketch -->
    <title>avregning aksjonspunkt valgt</title>
    <desc>Created with Sketch.</desc>
    <g id="avregning-aksjonspunkt-valgt" stroke="none" stroke-width="1" fill="none" fill-rule="evenodd">
        <g id="coins-2" fill="#FF9100" fill-rule="nonzero">
            <path d="M8,13.244 C8.44,13.244 8.859,13.233 9.267,13.219 C11.472,12.343 14.675,12.244 16,12.244 L16,11.744 L15.999,11.742 L16,11.742 L16,10 C14.226,10.954 10.478,11.244 8,11.244 C5.521,11.244 1.774,10.954 0,10 L0,11.744 C0.094,12.251 3.003,13.244 8,13.244 Z" id="Shape"></path>
            <path d="M8,7.244 C12.997,7.244 15.906,6.252 16,5.742 L16,4 C14.226,4.954 10.478,5.244 8,5.244 C5.521,5.244 1.774,4.954 0,4 L0,5.744 C0.094,6.252 3.003,7.244 8,7.244 Z" id="Shape"></path>
            <path d="M0,14.742 C0.091,15.218 2.62,16.109 7,16.23 L7,15.744 C7,15.147 7.233,14.652 7.626,14.242 C5.158,14.213 1.688,13.908 0,13 L0,14.742 Z" id="Shape"></path>
            <path d="M8,4 C12.995,4 15.903,3.008 15.999,2.498 C15.996,0.781 11.852,0 8,0 C4.146,0 0,0.783 0,2.5 C0.094,3.008 3.003,4 8,4 Z" id="Shape"></path>
            <path d="M8,10.244 C12.997,10.244 15.906,9.252 16,8.742 L16,7 C14.226,7.954 10.478,8.244 8,8.244 C5.521,8.244 1.774,7.954 0,7 L0,8.744 C0.094,9.252 3.003,10.244 8,10.244 Z" id="Shape"></path>
            <path d="M0,17.745 C0,19.314 3.463,20.101 7,20.224 L7,17.229 C4.601,17.16 1.549,16.833 0,16 L0,17.745 Z" id="Shape"></path>
            <path d="M8,15.5 C8.186,16.003 11.448,17 16,17 C20.534,17 23.787,16.011 23.998,15.487 C23.972,13.333 18.176,13 16,13 C13.847,13 8,13.361 8,15.5 Z" id="Shape"></path>
            <path d="M8,20 L8,21.791 C8,23.952 13.819,24.291 16,24.291 C18.176,24.291 24,23.952 24,21.791 L24,20 C22.051,21.025 17.775,21.291 16,21.291 C14.225,21.291 9.948,21.025 8,20 Z" id="Shape"></path>
            <path d="M16,18.291 C14.225,18.291 9.948,18.025 8,17 L8,18.791 C8.186,19.294 11.448,20.291 16,20.291 C20.542,20.291 23.799,19.298 24,18.775 L24,17 C22.051,18.025 17.775,18.291 16,18.291 Z" id="Shape"></path>
        </g>
    </g>
</svg>