<?xml version="1.0" encoding="UTF-8"?>
<svg width="18px" height="16px" viewBox="0 0 18 16" version="1.1" xmlns="http://www.w3.org/2000/svg" xmlns:xlink="http://www.w3.org/1999/xlink">
    <!-- Generator: Sketch 52.5 (67469) - http://www.bohemiancoding.com/sketch -->
    <title>bubbletext filled</title>
    <desc>Created with Sketch.</desc>
    <g id="Forside-saksbehandler" stroke="none" stroke-width="1" fill="none" fill-rule="evenodd">
        <g id="Arbeidsflate-Saksbehandler-markert-sak-Copy" transform="translate(-878.000000, -369.000000)" fill="#0067C5">
            <g id="bubbletext-filled" transform="translate(878.000000, 369.000000)">
                <g id="bubble-chat-text-2">
                    <path d="M8.99962502,0 C4.03708179,0 0,3.18863769 0,7.10719583 C0,8.95824531 0.88271322,10.6927952 2.4936461,12.0203155 L0.686971376,15.4793474 C0.614974376,15.6167019 0.641973251,15.7813834 0.752968626,15.8906917 C0.825715595,15.9626051 0.923211533,16 1.02220741,16 C1.07620516,16 1.12945294,15.9884939 1.18045081,15.9662007 L6.00799967,13.8116769 C6.96645973,14.0784754 7.97216783,14.2136725 9.00037498,14.2136725 C13.9629182,14.2136725 18,11.0250348 18,7.10719583 C17.99925,3.18863769 13.9621682,0 8.99962502,0 Z M5.59976347,4.00000007 L13.3997634,4.00349916 C13.7309634,4.00364774 13.9998694,4.22698449 14,4.5020187 C14.0001305,4.77705292 13.7314365,5.0001485 13.4002365,4.99999993 L5.60023661,4.99650084 C5.26903661,4.99635226 5.00013063,4.77301551 5.00000005,4.4979813 C4.99986946,4.22294708 5.26856347,3.9998515 5.59976347,4.00000007 Z M9.76211407,10.0044069 L5.23830472,10.0021021 C5.10687615,10.0020352 5.0001161,9.77851204 5.00000009,9.50092976 C4.99988493,9.22535168 5.10645736,8.99993305 5.23788593,9.00000001 L9.76169528,9.0023048 C9.89312385,9.00237176 9.99988474,9.22789908 9.99999991,9.50347716 C10.0001159,9.78105944 9.89354264,10.0044739 9.76211407,10.0044069 Z M13.5716652,7.49999996 L5.42880819,7.49634941 C5.19223676,7.49624335 5.00013072,7.27297501 5.00000007,6.99798259 C4.99986941,6.72299016 5.19176337,6.49989398 5.42833479,6.50000004 L13.5711918,6.50365059 C13.8077632,6.50375665 13.9998693,6.72702499 13.9999999,7.00201741 C14.0001306,7.27700984 13.8082366,7.50010602 13.5716652,7.49999996 Z" id="Shape" fill-rule="nonzero"></path>
                </g>
            </g>
        </g>
    </g>
</svg>