<?xml version="1.0" encoding="UTF-8"?>
<svg width="23px" height="20px" viewBox="0 0 23 20" version="1.1" xmlns="http://www.w3.org/2000/svg" xmlns:xlink="http://www.w3.org/1999/xlink">
    <!-- Generator: Sketch 43.2 (39069) - http://www.bohemiancoding.com/sketch -->
    <title>Warning </title>
    <desc>Created with Sketch.</desc>
    <defs></defs>
    <g id="Symbols" stroke="none" stroke-width="1" fill="none" fill-rule="evenodd">
        <g id="Warning-" fill="#FF9100">
            <g id="Filled_Version">
                <path d="M21.99352,18.6640107 L11.91124,0.233782154 C11.75484,-0.0512473847 11.24332,-0.0512473847 11.08784,0.233782154 L0.96784,18.7312743 C0.89608,18.8615976 0.90436,19.0163039 0.98716,19.1399008 C1.06996,19.2634976 1.21992,19.34001 1.38,19.34001 L21.62,19.34001 L21.6292,19.34001 C21.8822,19.34001 22.0892,19.1516719 22.0892,18.9196125 C22.0892,18.8237618 22.05332,18.7346375 21.99352,18.6640107 Z M11.04,6.85588436 C11.04,6.62382491 11.24608,6.43548681 11.5,6.43548681 C11.753,6.43548681 11.96,6.62382491 11.96,6.85588436 L11.96,13.2904893 C11.96,13.5217079 11.753,13.7108868 11.5,13.7108868 C11.24608,13.7108868 11.04,13.5217079 11.04,13.2904893 L11.04,6.85588436 Z M11.5,16.9084306 C11.01332,16.9084306 10.61956,16.5485703 10.61956,16.1046305 C10.61956,15.6615314 11.01332,15.2999895 11.5,15.2999895 C11.98484,15.2999895 12.37952,15.6615314 12.37952,16.1046305 C12.37952,16.5494111 11.98484,16.9084306 11.5,16.9084306 Z" id="Shape"></path>
            </g>
        </g>
    </g>
</svg>