<?xml version="1.0" encoding="UTF-8"?>
<svg width="18px" height="16px" viewBox="0 0 18 16" version="1.1" xmlns="http://www.w3.org/2000/svg" xmlns:xlink="http://www.w3.org/1999/xlink">
    <!-- Generator: Sketch 52.5 (67469) - http://www.bohemiancoding.com/sketch -->
    <title>bubbletext</title>
    <desc>Created with Sketch.</desc>
    <g id="Forside-saksbehandler" stroke="none" stroke-width="1" fill="none" fill-rule="evenodd">
        <g id="Arbeidsflate-Saksbehandler-markert-sak-Copy" transform="translate(-863.000000, -359.000000)" fill="#0067C5">
            <g id="bubble-text" transform="translate(863.000000, 359.000000)">
                <g id="bubble-chat-text-2-copy">
                    <path d="M9,0 C4.03725,0 0,3.18863769 0,7.10719583 C0,8.95752618 0.88275,10.692076 2.49375,12.0195964 L0.68625,15.4800665 C0.615,15.6159827 0.64125,15.7821026 0.753,15.8914108 C0.825,15.9626051 0.9225,16 1.0215,16 C1.07475,16 1.1295,15.9884939 1.17975,15.9662007 L6.0075,13.8116769 C6.969,14.0791946 7.9755,14.2151108 9,14.2151108 C13.96275,14.2151108 18,11.0264731 18,7.10719583 C18,3.18863769 13.96275,0 9,0 Z M9,13.4959773 C8.00025,13.4959773 7.02,13.3579037 6.08775,13.084633 C5.99925,13.0587442 5.904,13.0652164 5.82,13.1026114 L1.839,14.8795901 L3.2985,12.0864758 C3.37725,11.9347386 3.33525,11.7506405 3.19725,11.6449279 C1.61925,10.4346263 0.75,8.82304823 0.75,7.10719583 C0.75,3.58488022 4.45125,0.719133444 9,0.719133444 C13.54875,0.719133444 17.25,3.58488022 17.25,7.10719583 C17.25,10.6295114 13.54875,13.4959773 9,13.4959773 Z" id="Shape" fill-rule="nonzero"></path>
                    <path d="M5.6,5 L13.4,5 C13.7312,5 14,4.776 14,4.5 C14,4.224 13.7312,4 13.4,4 L5.6,4 C5.2688,4 5,4.224 5,4.5 C5,4.776 5.2688,5 5.6,5 Z" id="Path"></path>
                    <path d="M13.571429,6.6 L5.42857143,6.6 C5.192,6.6 5,6.824 5,7.1 C5,7.376 5.192,7.6 5.42857143,7.6 L13.571429,7.6 C13.8080004,7.6 14,7.376 14,7.1 C14,6.824 13.8080004,6.6 13.571429,6.6 Z" id="Path"></path>
                    <path d="M9.76190476,9 L5.23809524,9 C5.10666667,9 5,9.224 5,9.5 C5,9.776 5.10666667,10 5.23809524,10 L9.76190476,10 C9.89333333,10 10,9.776 10,9.5 C10,9.224 9.89333333,9 9.76190476,9 Z" id="Path"></path>
                </g>
            </g>
        </g>
    </g>
</svg>