<?xml version="1.0" encoding="UTF-8"?>
<svg width="24px" height="19px" viewBox="0 0 24 19" version="1.1" xmlns="http://www.w3.org/2000/svg" xmlns:xlink="http://www.w3.org/1999/xlink">
    <!-- Generator: Sketch 52.5 (67469) - http://www.bohemiancoding.com/sketch -->
    <title>gruppe</title>
    <desc>Created with Sketch.</desc>
    <g id="Forside-saksbehandler" stroke="none" stroke-width="1" fill="none" fill-rule="evenodd">
        <g id="Arbeidsflate-Saksbehandler-vise-ikon" transform="translate(-330.000000, -223.000000)" fill="#0067C5">
            <g id="verktøy/panelhode-ntroduksjon_knapp-copy-2" transform="translate(43.000000, 77.000000)">
                <g id="Group-6" transform="translate(20.000000, 53.000000)">
                    <g id="gruppe" transform="translate(267.000000, 93.000000)">
                        <g id="account-group-2">
                            <path d="M10.5,10.663 L10.5,9.28 C10.871,8.994 11.416,8.327 11.491,6.85 C11.908,6.573 12.146,5.955 12.146,5.352 C12.146,5.019 12.07,4.721 11.925,4.492 C11.857,4.383 11.774,4.29 11.68,4.216 C11.9,3.703 12.22,2.822 11.985,1.878 C11.639,0.492 9.891,0 8.5,0 C7.262,0 5.74,0.39 5.177,1.455 C4.566,1.436 4.246,1.695 4.099,1.918 C3.68,2.55 4.069,3.527 4.356,4.205 C4.252,4.282 4.162,4.379 4.087,4.495 C3.938,4.728 3.858,5.03 3.858,5.37 C3.858,5.966 4.094,6.577 4.508,6.851 C4.583,8.328 5.128,8.995 5.499,9.281 L5.499,10.664 C3.624,11.427 0,13.03 0,14 L0,18.5 C0,18.776 0.224,19 0.5,19 L15.5,19 C15.776,19 16,18.776 16,18.5 L16,14 C16,13.03 12.376,11.427 10.5,10.663 Z M15,18 L1,18 L1,14.105 C1.387,13.677 3.605,12.496 6.186,11.464 C6.376,11.388 6.5,11.205 6.5,11 L6.5,9 C6.5,8.804 6.363,8.617 6.185,8.536 C6.178,8.532 5.5,8.204 5.5,6.5 C5.5,6.224 5.336,6.014 5.06,6.014 C4.946,5.936 4.789,5.453 4.892,5.12 C4.929,5 4.96,5 5,5 C5.276,5 5.5,4.776 5.5,4.5 C5.5,4.34 5.436,4.189 5.309,3.889 C4.888,2.897 4.872,2.57 4.926,2.477 C4.926,2.477 5.113,2.432 5.4,2.49 C5.67,2.544 5.921,2.382 5.986,2.121 C6.147,1.472 7.205,1 8.5,1 C9.795,1 10.853,1.472 11.015,2.121 C11.197,2.846 10.881,3.556 10.693,3.981 C10.593,4.205 10.533,4.34 10.533,4.5 C10.533,4.776 10.787,5.003 11.062,5.003 C11.084,5.017 11.144,5.123 11.146,5.339 C11.149,5.683 11.012,5.965 11,6 C10.724,6 10.5,6.224 10.5,6.5 C10.5,8.193 9.831,8.528 9.835,8.528 C9.635,8.598 9.5,8.788 9.5,9 L9.5,11 C9.5,11.205 9.624,11.388 9.814,11.464 C12.394,12.496 14.613,13.676 15,14.105 L15,18 Z" id="Shape" fill-rule="nonzero"></path>
                            <path d="M20.935,12.188 C20.463,12.018 19.973,11.841 19.5,11.659 L19.5,10.801 C19.873,10.553 20.407,9.996 20.489,8.817 C20.828,8.532 21.003,7.953 21.003,7.379 C21.003,7.154 20.973,6.827 20.832,6.545 C20.786,6.452 20.73,6.37 20.667,6.299 C20.911,5.854 21.235,5.124 20.975,4.341 C20.613,3.259 19.146,2.875 18,2.875 C16.999,2.875 15.754,3.168 15.214,3.963 C14.821,3.95 14.536,4.068 14.334,4.307 C13.889,4.832 14.168,5.676 14.382,6.242 C14.296,6.322 14.222,6.421 14.162,6.536 C14.017,6.817 13.987,7.144 13.987,7.369 C13.987,7.949 14.166,8.535 14.51,8.82 C14.593,9.998 15.126,10.553 15.499,10.801 L15.499,11.5 C15.499,11.776 15.723,12 15.999,12 C16.275,12 16.499,11.776 16.499,11.5 L16.499,10.5 C16.499,10.288 16.349,10.093 16.148,10.023 C16.123,10.014 15.5,9.78 15.5,8.5 C15.5,8.266 15.34,8.07 15.123,8.015 C14.978,7.794 14.929,7.124 15,7 C15.276,7 15.5,6.776 15.5,6.5 C15.5,6.363 15.451,6.237 15.363,6.008 C15.138,5.424 15.051,5.064 15.072,4.973 C15.072,4.973 15.15,4.939 15.399,4.99 C15.653,5.042 15.894,4.899 15.974,4.658 C16.122,4.212 16.994,3.875 17.999,3.875 C19.004,3.875 19.876,4.212 20.024,4.658 C20.185,5.14 19.876,5.673 19.691,5.991 C19.575,6.191 19.499,6.323 19.499,6.5 C19.499,6.776 19.645,6.968 19.922,6.968 C20.053,7.119 20.013,7.793 19.873,8.016 C19.659,8.072 19.5,8.268 19.5,8.5 C19.5,9.78 18.877,10.014 18.865,10.019 C18.649,10.079 18.5,10.276 18.5,10.5 L18.5,12 C18.5,12.205 18.624,12.388 18.814,12.464 C19.39,12.694 20.007,12.917 20.595,13.129 C21.486,13.449 22.685,13.881 22.999,14.126 L22.999,18 L17.999,18 C17.723,18 17.499,18.224 17.499,18.5 C17.499,18.776 17.724,19 18,19 L23.5,19 C23.776,19 24,18.776 24,18.5 L24,14 C24,13.318 23.115,12.973 20.935,12.188 Z" id="Path"></path>
                        </g>
                    </g>
                </g>
            </g>
        </g>
    </g>
</svg>