<?xml version="1.0" encoding="UTF-8"?>
<svg width="24px" height="19px" viewBox="0 0 24 19" version="1.1" xmlns="http://www.w3.org/2000/svg" xmlns:xlink="http://www.w3.org/1999/xlink">
    <!-- Generator: Sketch 52.5 (67469) - http://www.bohemiancoding.com/sketch -->
    <title>gruppe hover</title>
    <desc>Created with Sketch.</desc>
    <g id="Forside-saksbehandler" stroke="none" stroke-width="1" fill="none" fill-rule="evenodd">
        <g id="Arbeidsflate-Saksbehandler-vise-saksbehandlere" transform="translate(-330.000000, -223.000000)" fill="#0067C5">
            <g id="verktøy/panelhode-ntroduksjon_knapp-copy-2" transform="translate(43.000000, 77.000000)">
                <g id="gruppe-hover" transform="translate(287.000000, 146.000000)">
                    <g id="account-group-2">
                        <path d="M20.934,12.188 C20.463,12.018 19.973,11.842 19.5,11.66 L19.5,10.803 C19.873,10.555 20.408,9.998 20.49,8.819 C20.828,8.534 21.003,7.956 21.003,7.381 C21.003,7.156 20.973,6.829 20.833,6.547 C20.787,6.454 20.73,6.372 20.668,6.302 C20.912,5.856 21.235,5.126 20.975,4.343 C20.614,3.26 19.146,2.875 18,2.875 C17,2.875 15.754,3.168 15.214,3.963 C14.685,3.946 14.413,4.184 14.277,4.381 C13.914,4.911 14.17,5.684 14.382,6.242 C14.296,6.322 14.222,6.421 14.161,6.536 C14.016,6.817 13.987,7.144 13.987,7.369 C13.987,7.949 14.165,8.535 14.51,8.821 C14.592,9.998 15.126,10.554 15.498,10.801 L15.498,11.658 C15.387,11.701 15.273,11.742 15.16,11.785 C16.8,12.793 17,13.449 17,14 L17,19 L23.5,19 C23.776,19 24,18.776 24,18.5 L24,14 C24,13.318 23.115,12.973 20.934,12.188 Z" id="Path"></path>
                        <path d="M10.5,10.663 C10.5,0.663 10.5,19.28 10.5,9.28 C11.201,8.74 11.447,7.729 11.492,6.85 C11.932,6.559 12.146,5.892 12.146,5.352 C12.146,4.923 12.015,4.481 11.68,4.216 C12.214,2.976 12.121,2.04 11.833,1.484 C11.268,0.388 9.733,0 8.5,0 C7.277,0 5.734,0.397 5.178,1.455 C4.745,1.436 4.336,1.563 4.1,1.918 C3.688,2.54 4.066,3.521 4.356,4.205 C4,4.468 3.859,4.928 3.859,5.369 C3.859,5.904 4.078,6.565 4.509,6.85 C4.536,7.4 4.646,8.013 4.892,8.509 C4.893,8.511 4.894,8.513 4.896,8.515 C5.088,8.9 5.315,9.138 5.5,9.28 C5.5,12.595 5.5,7.279 5.5,10.663 C3.75,11.376 0.479,12.819 0.05,13.798 C0.048,13.803 0.043,13.808 0.041,13.813 C0.015,13.878 0,13.94 0,14 L0,18.5 C0,18.776 0.225,19 0.5,19 C9.443,19 16,19 16,19 L16,18.5 L16,14 C16,12.917 11.541,11.087 10.5,10.663 Z" id="Path"></path>
                    </g>
                </g>
            </g>
        </g>
    </g>
</svg>