<?xml version="1.0" encoding="UTF-8"?>
<svg width="28px" height="28px" viewBox="0 0 28 28" version="1.1" xmlns="http://www.w3.org/2000/svg" xmlns:xlink="http://www.w3.org/1999/xlink">
    <!-- Generator: Sketch 42 (36781) - http://www.bohemiancoding.com/sketch -->
    <title>behandle hover</title>
    <desc>Created with Sketch.</desc>
    <defs></defs>
    <g id="Symbols" stroke="none" stroke-width="1" fill="none" fill-rule="evenodd">
        <g id="behandle-hover" fill-rule="nonzero" fill="#FF9100">
            <g id="Filled_Version">
                <g>
                    <path d="M11.6962701,0 L11.4912654,0.00199965223 C8.41119423,0.0559902626 5.51212728,1.30077378 3.32907687,3.50739002 C1.13002609,5.73000348 -0.0510011845,8.63949748 0.00200003947,11.700965 C0.11200258,18.0368632 5.07711724,23 11.3052611,23 L11.5082657,22.9980003 C17.9544146,22.8870196 23.1095336,17.6379325 22.9985311,11.3000348 C22.8885285,4.96413667 17.9234139,0 11.6962701,0 Z M11.000254,5.9989567 C11.000254,5.72300469 11.2242592,5.49904364 11.5002656,5.49904364 C11.7752719,5.49904364 12.0002771,5.72300469 12.0002771,5.9989567 L12.0002771,12.9977395 C12.0002771,13.2736915 11.7752719,13.4976526 11.5002656,13.4976526 C11.2242592,13.4976526 11.000254,13.2736915 11.000254,12.9977395 L11.000254,5.9989567 Z M11.518266,17.4969571 L11.5002656,17.4969571 C10.955253,17.4969571 10.5092427,17.0610329 10.5002425,16.5151278 C10.4902422,15.9632238 10.9302524,15.5073031 11.4822651,15.4983046 C11.4882653,15.4983046 11.4942654,15.4973048 11.5002656,15.4973048 C12.0452781,15.4973048 12.4902884,15.9342288 12.5002887,16.4801339 C12.5102889,17.0320379 12.0692787,17.4869588 11.518266,17.4969571 Z" id="Shape"></path>
                </g>
            </g>
        </g>
    </g>
</svg>
