<?xml version="1.0" encoding="UTF-8"?>
<svg width="26px" height="26px" viewBox="0 0 26 26" version="1.1" xmlns="http://www.w3.org/2000/svg" xmlns:xlink="http://www.w3.org/1999/xlink">
    <!-- Generator: Sketch 48.2 (47327) - http://www.bohemiancoding.com/sketch -->
    <title>beregn ikke oppfylt</title>
    <desc>Created with Sketch.</desc>
    <defs></defs>
    <g id="Symbols" stroke="none" stroke-width="1" fill="none" fill-rule="evenodd">
        <g id="beregn-ikke-oppfylt" fill="#B4321C" fill-rule="nonzero">
            <g id="calculator-1">
                <path d="M7.7478069,18.9583333 L9.40061793,17.1751667 C9.59642483,16.9639167 9.59642483,16.6205 9.40061793,16.40925 C9.20481103,16.198 8.88649931,16.198 8.69069241,16.40925 L7.03788138,18.1924167 L5.38507034,16.40925 C5.18926345,16.198 4.87095172,16.198 4.67514483,16.40925 C4.47933793,16.6205 4.47933793,16.9639167 4.67514483,17.1751667 L6.32795586,18.9583333 L4.67514483,20.7415 C4.47933793,20.95275 4.47933793,21.2961667 4.67514483,21.5074167 C4.77254621,21.6135833 4.90107586,21.6666667 5.02960552,21.6666667 C5.15813517,21.6666667 5.28666483,21.6135833 5.38507034,21.5085 L7.03788138,19.7253333 L8.69069241,21.5085 C8.78909793,21.6135833 8.91762759,21.6666667 9.04615724,21.6666667 C9.1746869,21.6666667 9.30321655,21.6135833 9.40162207,21.5085 C9.59742897,21.29725 9.59742897,20.9538333 9.40162207,20.7425833 L7.7478069,18.9583333 Z" id="Shape"></path>
                <path d="M4.02546759,7.58333333 L6.03374345,7.58333333 L6.03374345,9.75 C6.03374345,10.049 6.25867034,10.2916667 6.53581241,10.2916667 C6.81295448,10.2916667 7.03788138,10.049 7.03788138,9.75 L7.03788138,7.58333333 L9.04615724,7.58333333 C9.32329931,7.58333333 9.54822621,7.34066667 9.54822621,7.04166667 C9.54822621,6.74266667 9.32329931,6.5 9.04615724,6.5 L7.03788138,6.5 L7.03788138,4.33333333 C7.03788138,4.03433333 6.81295448,3.79166667 6.53581241,3.79166667 C6.25867034,3.79166667 6.03374345,4.03433333 6.03374345,4.33333333 L6.03374345,6.5 L4.02546759,6.5 C3.74832552,6.5 3.52339862,6.74266667 3.52339862,7.04166667 C3.52339862,7.34066667 3.74732138,7.58333333 4.02546759,7.58333333 Z" id="Shape"></path>
                <path d="M16.0751228,7.58333333 L21.0958124,7.58333333 C21.3729545,7.58333333 21.5978814,7.34066667 21.5978814,7.04166667 C21.5978814,6.74266667 21.3729545,6.5 21.0958124,6.5 L16.0751228,6.5 C15.7979807,6.5 15.5730538,6.74266667 15.5730538,7.04166667 C15.5730538,7.34066667 15.7969766,7.58333333 16.0751228,7.58333333 Z" id="Shape"></path>
                <path d="M21.0958124,19.5 L16.0751228,19.5 C15.7979807,19.5 15.5730538,19.7426667 15.5730538,20.0416667 C15.5730538,20.3406667 15.7979807,20.5833333 16.0751228,20.5833333 L21.0958124,20.5833333 C21.3729545,20.5833333 21.5978814,20.3406667 21.5978814,20.0416667 C21.5978814,19.7426667 21.3729545,19.5 21.0958124,19.5 Z" id="Shape"></path>
                <path d="M21.0958124,17.3333333 L16.0751228,17.3333333 C15.7979807,17.3333333 15.5730538,17.576 15.5730538,17.875 C15.5730538,18.174 15.7979807,18.4166667 16.0751228,18.4166667 L21.0958124,18.4166667 C21.3729545,18.4166667 21.5978814,18.174 21.5978814,17.875 C21.5978814,17.576 21.3729545,17.3333333 21.0958124,17.3333333 Z" id="Shape"></path>
                <path d="M22.2213871,0 L3.80472046,0 C1.71388713,0 0.0130537931,1.70083333 0.0130537931,3.79166667 L0.0130537931,22.2083333 C0.0130537931,24.2991667 1.71388713,26 3.80472046,26 L22.2213871,26 C24.3122205,26 26.0130538,24.2991667 26.0130538,22.2083333 L26.0130538,3.79166667 C26.0130538,1.70083333 24.3111371,0 22.2213871,0 Z M24.9297205,3.79166667 L24.9297205,11.9166667 L13.0130538,11.9166667 L13.0130538,1.08333333 L22.2213871,1.08333333 C23.7142205,1.08333333 24.9297205,2.29883333 24.9297205,3.79166667 Z M3.80472046,1.08333333 L11.9297205,1.08333333 L11.9297205,11.9166667 L1.09638713,11.9166667 L1.09638713,3.79166667 C1.09638713,2.29883333 2.31080379,1.08333333 3.80472046,1.08333333 Z M1.09638713,22.2083333 L1.09638713,13 L11.9297205,13 L11.9297205,24.9166667 L3.80472046,24.9166667 C2.31080379,24.9166667 1.09638713,23.7011667 1.09638713,22.2083333 Z M22.2213871,24.9166667 L13.0130538,24.9166667 L13.0130538,13 L24.9297205,13 L24.9297205,22.2083333 C24.9297205,23.7011667 23.7142205,24.9166667 22.2213871,24.9166667 Z" id="Shape"></path>
            </g>
        </g>
    </g>
</svg>