<?xml version="1.0" encoding="UTF-8"?>
<svg width="17px" height="17px" viewBox="0 0 17 17" version="1.1" xmlns="http://www.w3.org/2000/svg" xmlns:xlink="http://www.w3.org/1999/xlink">
    <!-- Generator: Sketch 50.2 (55047) - http://www.bohemiancoding.com/sketch -->
    <title>endringstidspunkt</title>
    <desc>Created with Sketch.</desc>
    <defs></defs>
    <g id="Uttaksperioder" stroke="none" stroke-width="1" fill="none" fill-rule="evenodd">
        <g id="revurdering-flere-aksjonspunkt" transform="translate(-302.000000, -440.000000)">
            <g id="uttak-copy-2" transform="translate(98.000000, 438.000000)">
                <g id="Endringstidspunkt" transform="translate(204.000000, 2.000000)">
                    <g id="endringstidspunkt">
                        <g id="synchronize-4">
                            <circle id="Oval" fill="#007F2F" cx="8.5" cy="8.5" r="8.5"></circle>
                            <path d="M13.4884296,4.50487413 C12.4504714,3.5090644 11.0987472,2.98539238 9.67870297,3.03952945 C8.22778822,3.09158432 6.90035557,3.72613323 5.94134495,4.8260527 C5.25662655,5.61156074 4.81077517,6.59019236 4.62858845,7.67033098 L3.96360695,6.63964449 C3.80925431,6.40019207 3.49498223,6.33460293 3.26168202,6.49389084 C3.02888788,6.65317875 2.96562861,6.97591897 3.12048732,7.21589193 C3.20702601,7.35071406 4.56279881,9.45425149 4.65338609,9.58542977 C4.88921667,9.87485486 5.25814477,9.84934798 5.45298334,9.59636129 L7.21108514,7.5381116 C7.39529615,7.32208388 7.3745471,6.99309708 7.16503238,6.80361734 C6.95450551,6.61361705 6.63517269,6.63495955 6.44994953,6.85098727 L5.63668828,7.80359145 C5.79154698,6.93271342 6.1483293,6.14772593 6.69488944,5.52098526 C7.46867691,4.63397022 8.54104815,4.12175026 9.71412817,4.07958582 C10.8634227,4.04054466 11.9575551,4.45958639 12.7981444,5.26591638 C13.6387336,6.07172582 14.1235527,7.16591926 14.1630265,8.34756488 C14.2040185,9.52868996 13.7940984,10.6551574 13.0101895,11.5192683 C12.2272927,12.3833792 11.1630186,12.8820649 10.0147362,12.9231882 C9.73487721,12.9330787 9.51625315,13.1740927 9.52637464,13.4614356 C9.53548397,13.742532 9.76018092,13.9642857 10.0314367,13.9642857 C11.4686874,13.9127514 12.7824561,13.2969422 13.750576,12.2292968 C14.7197082,11.1611308 15.2252763,9.76970402 15.1751749,8.31112647 C15.1255797,6.85202837 14.5263878,5.50068386 13.4884296,4.50487413 Z" id="Shape" fill="#FFFFFF" fill-rule="nonzero" transform="translate(9.107143, 8.500000) scale(-1, 1) translate(-9.107143, -8.500000) "></path>
                        </g>
                    </g>
                </g>
            </g>
        </g>
    </g>
</svg>