<?xml version="1.0" encoding="UTF-8"?>
<svg width="21px" height="21px" viewBox="0 0 21 21" version="1.1" xmlns="http://www.w3.org/2000/svg" xmlns:xlink="http://www.w3.org/1999/xlink">
    <!-- Generator: Sketch 50.2 (55047) - http://www.bohemiancoding.com/sketch -->
    <title>internt dokument</title>
    <desc>Created with Sketch.</desc>
    <defs></defs>
    <g id="Adopsjonsvilkår" stroke="none" stroke-width="1" fill="none" fill-rule="evenodd">
        <g id="Utvidet-dokumentliste" transform="translate(-931.000000, -441.000000)" fill="#0067C5">
            <g id="internt-dokument" transform="translate(931.000000, 441.000000)">
                <g id="Rectangle-path">
                    <rect fill-rule="nonzero" x="7.352" y="0.541" width="2.77" height="2.77"></rect>
                    <rect fill-rule="nonzero" x="7.354" y="4.079" width="2.769" height="2.769"></rect>
                    <rect fill-rule="nonzero" x="7.356" y="7.617" width="2.769" height="2.769"></rect>
                    <rect fill-rule="nonzero" x="3.818" y="7.619" width="2.77" height="2.77"></rect>
                    <rect fill-rule="nonzero" x="3.821" y="11.157" width="2.769" height="2.77"></rect>
                    <rect fill-rule="nonzero" x="0.28" y="7.622" width="2.769" height="2.77"></rect>
                    <rect fill-rule="nonzero" x="7.359" y="11.155" width="2.77" height="2.769"></rect>
                    <rect fill-rule="nonzero" x="7.361" y="14.693" width="2.77" height="2.769"></rect>
                    <rect fill-rule="nonzero" x="10.89" y="0.539" width="2.769" height="2.769"></rect>
                    <rect fill-rule="nonzero" x="10.893" y="4.076" width="2.769" height="2.769"></rect>
                    <rect fill-rule="nonzero" x="10.895" y="7.614" width="2.769" height="2.769"></rect>
                    <rect fill-rule="nonzero" x="10.896" y="11.152" width="2.77" height="2.769"></rect>
                    <rect fill-rule="nonzero" x="14.432" y="7.612" width="2.769" height="2.769"></rect>
                    <rect fill-rule="nonzero" x="17.971" y="7.609" width="2.77" height="2.77"></rect>
                    <rect fill-rule="nonzero" x="14.436" y="11.15" width="2.769" height="2.769"></rect>
                    <rect fill-rule="nonzero" x="10.9" y="14.69" width="2.769" height="2.769"></rect>
                    <rect fill-rule="nonzero" x="9.133" y="18.229" width="2.77" height="2.77"></rect>
                </g>
            </g>
        </g>
    </g>
</svg>