<?xml version="1.0" encoding="UTF-8"?>
<svg width="28px" height="28px" viewBox="0 0 28 28" version="1.1" xmlns="http://www.w3.org/2000/svg" xmlns:xlink="http://www.w3.org/1999/xlink">
    <!-- Generator: Sketch 47.1 (45422) - http://www.bohemiancoding.com/sketch -->
    <title>vedtak ikon ikke ok valgt</title>
    <desc>Created with Sketch.</desc>
    <defs></defs>
    <g id="Symbols" stroke="none" stroke-width="1" fill="none" fill-rule="evenodd">
        <g id="vedtak-ikon-ikke-ok-valgt" fill-rule="nonzero" fill="#BA3A26">
            <g id="stamp">
                <g id="Filled_Version">
                    <path d="M25.0833333,18.6865 L19.4296667,18.6865 C15.5971667,16.0206667 17.3588333,12.0948333 18.7763333,8.96466667 C19.3666667,7.6615 19.8333333,6.63366667 19.8333333,5.8135 C19.8333333,2.009 16.898,0.0186666667 13.9988333,0.0186666667 C11.0996667,0.0198333333 8.16666667,2.01016667 8.16666667,5.8135 C8.16666667,6.636 8.63566667,7.6685 9.22833333,8.9705 C10.6481667,12.096 12.411,16.0125 8.5715,18.6853333 L2.91666667,18.6853333 C1.309,18.6853333 0,19.9546667 0,21.5635 L0,25.0635 C0,25.3855 0.261333333,25.6468333 0.583333333,25.6468333 L1.16666667,25.6468333 L1.16666667,27.3968333 C1.16666667,27.7188333 1.428,27.9801667 1.75,27.9801667 L26.25,27.9801667 C26.572,27.9801667 26.8333333,27.7188333 26.8333333,27.3968333 L26.8333333,25.6468333 L27.4166667,25.6468333 C27.7386667,25.6468333 28,25.3855 28,25.0635 L28,21.5635 C28,19.9546667 26.691,18.6865 25.0833333,18.6865 Z M25.6666667,26.8531667 L2.33333333,26.8531667 L2.33333333,25.648 L25.6666667,25.648 L25.6666667,26.8531667 Z" id="Shape"></path>
                </g>
            </g>
        </g>
    </g>
</svg>
