<?xml version="1.0" encoding="UTF-8"?>
<svg width="26px" height="26px" viewBox="0 0 26 26" version="1.1" xmlns="http://www.w3.org/2000/svg" xmlns:xlink="http://www.w3.org/1999/xlink">
    <!-- Generator: Sketch 48.2 (47327) - http://www.bohemiancoding.com/sketch -->
    <title>beregn valgt ikke oppfylt</title>
    <desc>Created with Sketch.</desc>
    <defs></defs>
    <g id="Symbols" stroke="none" stroke-width="1" fill="none" fill-rule="evenodd">
        <g id="beregn-valgt-ikke-oppfylt" fill="#BA3A26" fill-rule="nonzero">
            <g id="calculator-1">
                <path d="M0,3.79166667 L0,11.9166667 L11.9166667,11.9166667 L11.9166667,0 L3.79166667,0 C1.70083333,0 0,1.70083333 0,3.79166667 Z M5.70833333,4.33166663 C5.70833333,4.03266663 5.951,3.78999996 6.25,3.78999996 C6.549,3.78999996 6.79166667,4.03266663 6.79166667,4.33166663 L6.79166667,6.4983333 L8.95833333,6.4983333 C9.25733333,6.4983333 9.5,6.74099996 9.5,7.03999996 C9.5,7.33899996 9.25733333,7.58166663 8.95833333,7.58166663 L6.79166667,7.58166663 L6.79166667,9.7483333 C6.79166667,10.0473333 6.549,10.29 6.25,10.29 C5.951,10.29 5.70833333,10.0473333 5.70833333,9.7483333 L5.70833333,7.58166663 L3.54166667,7.58166663 C3.24266667,7.58166663 3,7.33899996 3,7.03999996 C3,6.74099996 3.24266667,6.4983333 3.54166667,6.4983333 L5.70833333,6.4983333 L5.70833333,4.33166663 Z" id="Shape"></path>
                <path d="M13,26 L22.2083333,26 C24.2991667,26 26,24.30025 26,22.2083333 L26,13 L13,13 L13,26 Z M16.0416667,17.3333333 L21.4583333,17.3333333 C21.7573333,17.3333333 22,17.576 22,17.875 C22,18.174 21.7573333,18.4166667 21.4583333,18.4166667 L16.0416667,18.4166667 C15.7426667,18.4166667 15.5,18.174 15.5,17.875 C15.5,17.576 15.7426667,17.3333333 16.0416667,17.3333333 Z M16.0416667,19.5 L21.4583333,19.5 C21.7573333,19.5 22,19.7426667 22,20.0416667 C22,20.3406667 21.7573333,20.5833333 21.4583333,20.5833333 L16.0416667,20.5833333 C15.7426667,20.5833333 15.5,20.3406667 15.5,20.0416667 C15.5,19.7426667 15.7426667,19.5 16.0416667,19.5 Z" id="Shape"></path>
                <path d="M22.2083333,0 L13,0 L13,11.9166667 L26,11.9166667 L26,3.79166667 C26,1.70083333 24.2991667,0 22.2083333,0 Z M21.4583333,7.58333333 L16.0416667,7.58333333 C15.7426667,7.58333333 15.5,7.34066667 15.5,7.04166667 C15.5,6.74266667 15.7426667,6.5 16.0416667,6.5 L21.4583333,6.5 C21.7573333,6.5 22,6.74266667 22,7.04166667 C22,7.34066667 21.7573333,7.58333333 21.4583333,7.58333333 Z" id="Shape"></path>
                <path d="M0,22.2083333 C0,24.30025 1.70083333,26 3.79166667,26 L11.9166667,26 L11.9166667,13 L0,13 L0,22.2083333 Z M4.15855086,17.1743542 C3.94714971,16.9641875 3.94714971,16.6196875 4.15855086,16.4084375 C4.369952,16.1971875 4.71361437,16.1971875 4.92501551,16.4084375 L6.71054209,18.1916042 L8.49498456,16.4084375 C8.7063857,16.1971875 9.05004808,16.1971875 9.26144922,16.4084375 C9.47285036,16.6196875 9.47285036,16.9641875 9.26144922,17.1743542 L7.47700675,18.9575208 L9.26144922,20.7406875 C9.47285036,20.9519375 9.47285036,21.2964375 9.26144922,21.5066042 C9.1562907,21.6127708 9.01752482,21.6658542 8.87875894,21.6658542 C8.73999307,21.6658542 8.60122719,21.6127708 8.49498456,21.5076875 L6.71054209,19.7223542 L4.92609962,21.5066042 C4.819857,21.6127708 4.68109112,21.6658542 4.54232524,21.6658542 C4.40355936,21.6658542 4.26479348,21.6127708 4.15855086,21.5076875 C3.94714971,21.2975208 3.94714971,20.9530208 4.15855086,20.7417708 L5.94407744,18.9575208 L4.15855086,17.1743542 Z" id="Shape"></path>
            </g>
        </g>
    </g>
</svg>