<?xml version="1.0" encoding="UTF-8"?>
<svg width="26px" height="26px" viewBox="0 0 26 26" version="1.1" xmlns="http://www.w3.org/2000/svg" xmlns:xlink="http://www.w3.org/1999/xlink">
    <!-- Generator: Sketch 51.2 (57519) - http://www.bohemiancoding.com/sketch -->
    <title>hjelpetekst/ikon/Normal Copy</title>
    <desc>Created with Sketch.</desc>
    <defs>
        <path d="M13,26 C5.83191304,26 0,20.168087 0,13 C0,5.83191304 5.83191304,0 13,0 C20.168087,0 26,5.83191304 26,13 C26,20.168087 20.168087,26 13,26 Z M13,1.13043478 C6.45478261,1.13043478 1.13043478,6.45478261 1.13043478,13 C1.13043478,19.5452174 6.45478261,24.8695652 13,24.8695652 C19.5452174,24.8695652 24.8695652,19.5452174 24.8695652,13 C24.8695652,6.45478261 19.5452174,1.13043478 13,1.13043478 Z M13,17.5217391 C12.688,17.5217391 12.4347826,17.2685217 12.4347826,16.9565217 L12.4347826,13.5652174 C12.4347826,13.2532174 12.688,13 13,13 C14.5577391,13 15.826087,11.7316522 15.826087,10.173913 C15.826087,8.61617391 14.5577391,7.34782609 13,7.34782609 C11.4422609,7.34782609 10.173913,8.61617391 10.173913,10.173913 C10.173913,10.485913 9.92069565,10.7391304 9.60869565,10.7391304 C9.29669565,10.7391304 9.04347826,10.485913 9.04347826,10.173913 C9.04347826,7.99217391 10.8182609,6.2173913 13,6.2173913 C15.1817391,6.2173913 16.9565217,7.99217391 16.9565217,10.173913 C16.9565217,12.1634783 15.4801739,13.8150435 13.5652174,14.0908696 L13.5652174,16.9565217 C13.5652174,17.2685217 13.312,17.5217391 13,17.5217391 Z M13,20.9130435 C12.3756781,20.9130435 11.8695652,20.4069306 11.8695652,19.7826087 C11.8695652,19.1582868 12.3756781,18.6521739 13,18.6521739 C13.6243219,18.6521739 14.1304348,19.1582868 14.1304348,19.7826087 C14.1304348,20.4069306 13.6243219,20.9130435 13,20.9130435 Z" id="path-1"></path>
    </defs>
    <g id="Uttaksperioder" stroke="none" stroke-width="1" fill="none" fill-rule="evenodd">
        <g id="Overlay-forklaring" transform="translate(-921.000000, -561.000000)">
            <g id="uttak-copy-2" transform="translate(65.000000, 422.000000)">
                <g id="hjelpetekst/ikon/Normal" transform="translate(856.000000, 139.000000)">
                    <g id="icon/line/alerts/-help-circle">
                        <mask id="mask-2" fill="white">
                            <use xlink:href="#path-1"></use>
                        </mask>
                        <use id="Mask" fill="#0067C5" xlink:href="#path-1"></use>
                        <g id="X⚙️/-interaksjonsfarge/-interaksjon" mask="url(#mask-2)" fill="#0067C5">
                            <rect id="Rectangle-3" x="0" y="0" width="26" height="26"></rect>
                        </g>
                    </g>
                </g>
            </g>
        </g>
    </g>
</svg>