<?xml version="1.0" encoding="UTF-8"?>
<svg width="23px" height="22px" viewBox="0 0 23 22" version="1.1" xmlns="http://www.w3.org/2000/svg" xmlns:xlink="http://www.w3.org/1999/xlink">
    <!-- Generator: Sketch 44.1 (41455) - http://www.bohemiancoding.com/sketch -->
    <title>icon/book_light</title>
    <desc>Created with Sketch.</desc>
    <defs></defs>
    <g id="Symbols" stroke="none" stroke-width="1" fill="none" fill-rule="evenodd" stroke-linecap="round" stroke-linejoin="round">
        <g id="icon/book_light" stroke="#FFFFFF">
            <path d="M11.0330042,4.4833795 L11.0330042,19.5236011" id="Stroke-4481"></path>
            <path d="M8.235725,19.5236011 L13.8036417,19.5236011" id="Stroke-4482"></path>
            <path d="M12.4321708,3.02842105 C12.4321708,3.8331856 11.8054208,4.4833795 11.0330042,4.4833795 C10.2605875,4.4833795 9.63479583,3.8331856 9.63479583,3.02842105 C9.63479583,2.22465374 10.2605875,1.5734626 11.0330042,1.5734626 C11.8054208,1.5734626 12.4321708,2.22465374 12.4321708,3.02842105 L12.4321708,3.02842105 Z" id="Stroke-4484"></path>
            <polyline id="Stroke-4483" points="0.7776875 12.0997785 4.03985417 4.15185606 7.29147917 12.0997785"></polyline>
            <path d="M4.04014167,15.7376732 C5.84276667,15.7376732 7.30326667,14.2168976 7.30326667,12.1027702 L0.777016667,12.1027702 C0.777016667,14.2168976 2.23751667,15.7376732 4.04014167,15.7376732 L4.04014167,15.7376732 Z" id="Stroke-4485"></path>
            <polyline id="Stroke-4486" points="22.2203958 10.2161219 18.9591875 2.24326875 15.6922292 10.2161219"></polyline>
            <path d="M18.9589,13.8540167 C17.156275,13.8540167 15.695775,12.3332411 15.695775,10.2191136 L22.222025,10.2191136 C22.222025,12.3332411 20.761525,13.8540167 18.9589,13.8540167 L18.9589,13.8540167 Z" id="Stroke-4487"></path>
            <path d="M9.71495962,3.2415686 L2.63575129,3.2415686" id="Stroke-4488" transform="translate(6.175355, 3.740184) rotate(-7.000000) translate(-6.175355, -3.740184) "></path>
            <path d="M12.2967916,1.97525021 L20.2959999,1.97525021" id="Stroke-4489" transform="translate(16.296396, 2.473865) rotate(-7.000000) translate(-16.296396, -2.473865) "></path>
        </g>
    </g>
</svg>