<?xml version="1.0" encoding="UTF-8"?>
<svg width="28px" height="28px" viewBox="0 0 28 28" version="1.1" xmlns="http://www.w3.org/2000/svg" xmlns:xlink="http://www.w3.org/1999/xlink">
    <!-- Generator: Sketch 47.1 (45422) - http://www.bohemiancoding.com/sketch -->
    <title>avslått valgt</title>
    <desc>Created with Sketch.</desc>
    <defs></defs>
    <g id="Symbols" stroke="none" stroke-width="1" fill="none" fill-rule="evenodd">
        <g id="avslått-valgt" fill="#BA3A26">
            <path d="M13.998761,0 C6.29390605,0 0.0146135764,6.26713043 4.90835943e-06,13.972 C-0.00729942565,17.7118261 1.44139349,21.230087 4.08069284,23.8803478 C6.7199922,26.5293913 10.2333769,27.9926957 13.9731959,28 L13.9999784,28 C21.703616,28 27.9841259,21.7316522 27.9999519,14.0255652 C28.0145606,6.30730435 21.7462246,0.0146086957 13.998761,0 Z M19.5853592,18.7453913 C19.8215326,18.9827826 19.8203152,19.3686957 19.5829244,19.606087 C19.4636203,19.7253913 19.3090119,19.7838261 19.1531861,19.7838261 C18.9985777,19.7838261 18.8415345,19.7241739 18.7222304,19.606087 L13.9963263,14.8606957 L9.25337871,19.5866087 C9.13407459,19.705913 8.97824879,19.7643478 8.822423,19.7643478 C8.66659721,19.7643478 8.51198881,19.7046957 8.39268468,19.5866087 C8.15529383,19.348 8.15529383,18.962087 8.39390207,18.725913 L13.138067,14 L8.41216291,9.2546087 C8.17477205,9.016 8.17598944,8.63130435 8.41459769,8.39513043 C8.65198854,8.15530435 9.03790085,8.15652174 9.27529171,8.39634783 L13.9999784,13.1405217 L18.742926,8.41582609 C18.9803168,8.17843478 19.3674465,8.17843478 19.60362,8.41704348 C19.8410109,8.65443478 19.8410109,9.04034783 19.6024026,9.27773913 L14.8594551,14.0036522 L19.5853592,18.7453913 Z" id="Shape"></path>
        </g>
    </g>
</svg>
