<?xml version="1.0" encoding="UTF-8"?>
<svg width="18px" height="18px" viewBox="0 0 18 18" version="1.1" xmlns="http://www.w3.org/2000/svg" xmlns:xlink="http://www.w3.org/1999/xlink">
    <!-- Generator: Sketch 49 (51002) - http://www.bohemiancoding.com/sketch -->
    <title>endre</title>
    <desc>Created with Sketch.</desc>
    <defs></defs>
    <g id="endre" stroke="none" stroke-width="1" fill="none" fill-rule="evenodd">
        <g id="pencil-3-copy" fill="#0067C5" fill-rule="nonzero">
            <path d="M0.762,17.625 C0.66375,17.625 0.5685,17.58675 0.4965,17.5155 C0.39825,17.41725 0.36225,17.2725 0.40275,17.1405 L1.90275,12.2655 C1.92075,12.207 1.953,12.15375 1.9965,12.11025 L10.9965,3.11025 C11.14275,2.964 11.3805,2.964 11.52675,3.11025 L14.90175,6.48525 C15.048,6.6315 15.048,6.86925 14.90175,7.0155 L5.90175,16.0155 C5.85825,16.059 5.80575,16.09125 5.7465,16.10925 L0.8715,17.60925 C0.8355,17.61975 0.79875,17.625 0.762,17.625 Z M2.59275,12.5745 L1.32825,16.68375 L5.4375,15.41925 L14.10675,6.75 L11.262,3.90525 L2.59275,12.5745 Z" id="Shape"></path>
            <path d="M14.637,7.125 C14.541,7.125 14.445,7.08825 14.3715,7.0155 C14.22525,6.86925 14.22525,6.6315 14.3715,6.48525 L16.686,4.1715 C16.8975,3.96 17.0145,3.678 17.0145,3.3765 C17.0145,3.075 16.8975,2.79225 16.686,2.58 L15.432,1.32675 C14.99325,0.88875 14.28,0.88875 13.84125,1.32675 L11.52675,3.6405 C11.3805,3.78675 11.14275,3.78675 10.9965,3.6405 C10.85025,3.49425 10.85025,3.2565 10.9965,3.11025 L13.311,0.7965 C14.04225,0.066 15.23175,0.06675 15.96225,0.7965 L17.21625,2.0505 C17.5695,2.40375 17.76375,2.87475 17.76375,3.37725 C17.76375,3.87975 17.56875,4.35 17.21625,4.70325 L14.90175,7.017 C14.82825,7.08825 14.733,7.125 14.637,7.125 Z" id="Shape"></path>
            <path d="M4.887,13.5 C4.791,13.5 4.695,13.46325 4.6215,13.3905 C4.47525,13.24425 4.47525,13.0065 4.6215,12.86025 L12.684,4.79775 C12.83025,4.6515 13.068,4.6515 13.21425,4.79775 C13.3605,4.944 13.3605,5.18175 13.21425,5.328 L5.15175,13.3905 C5.07825,13.46325 4.983,13.5 4.887,13.5 Z" id="Shape"></path>
            <path d="M5.637,16.125 C5.541,16.125 5.445,16.08825 5.3715,16.0155 L4.6215,15.2655 C4.551,15.195 4.512,15.09975 4.512,15 L4.512,13.5 L3.012,13.5 C2.91225,13.5 2.817,13.46025 2.7465,13.3905 L1.9965,12.6405 C1.85025,12.49425 1.85025,12.2565 1.9965,12.11025 C2.14275,11.964 2.3805,11.964 2.52675,12.11025 L3.16725,12.75 L4.887,12.75 C5.094,12.75 5.262,12.918 5.262,13.125 L5.262,14.84475 L5.9025,15.48525 C6.04875,15.6315 6.04875,15.86925 5.9025,16.0155 C5.82825,16.08825 5.733,16.125 5.637,16.125 Z" id="Shape"></path>
            <path d="M3.012,16.875 C2.916,16.875 2.82,16.83825 2.7465,16.7655 L1.2465,15.2655 C1.10025,15.11925 1.10025,14.8815 1.2465,14.73525 C1.39275,14.589 1.6305,14.589 1.77675,14.73525 L3.27675,16.23525 C3.423,16.3815 3.423,16.61925 3.27675,16.7655 C3.20325,16.83825 3.108,16.875 3.012,16.875 Z" id="Shape"></path>
            <path d="M15.762,6 C15.666,6 15.57,5.96325 15.4965,5.8905 L12.1215,2.5155 C11.97525,2.36925 11.97525,2.1315 12.1215,1.98525 C12.26775,1.839 12.5055,1.839 12.65175,1.98525 L16.02675,5.36025 C16.173,5.5065 16.173,5.74425 16.02675,5.8905 C15.95325,5.96325 15.858,6 15.762,6 Z" id="Shape"></path>
        </g>
    </g>
</svg>