<?xml version="1.0" encoding="UTF-8"?>
<svg width="25px" height="21px" viewBox="0 0 25 21" version="1.1" xmlns="http://www.w3.org/2000/svg" xmlns:xlink="http://www.w3.org/1999/xlink">
    <!-- Generator: Sketch 43.2 (39069) - http://www.bohemiancoding.com/sketch -->
    <title>motta dokument</title>
    <desc>Created with Sketch.</desc>
    <defs></defs>
    <g id="Symbols" stroke="none" stroke-width="1" fill="none" fill-rule="evenodd">
        <g id="motta-dokument" fill-rule="nonzero" fill="#06893A">
            <g id="arrow-right-6">
                <g id="Filled_Icons">
                    <g id="Group">
                        <rect id="Rectangle-path" x="3.551" y="10.774" width="2.77" height="2.769"></rect>
                        <rect id="Rectangle-path" x="7.09" y="10.772" width="2.769" height="2.769"></rect>
                        <rect id="Rectangle-path" x="10.627" y="10.77" width="2.77" height="2.77"></rect>
                        <rect id="Rectangle-path" x="10.629" y="14.308" width="2.769" height="2.77"></rect>
                        <rect id="Rectangle-path" x="14.168" y="14.305" width="2.769" height="2.77"></rect>
                        <rect id="Rectangle-path" x="10.632" y="17.845" width="2.77" height="2.77"></rect>
                        <rect id="Rectangle-path" x="14.166" y="10.767" width="2.769" height="2.77"></rect>
                        <rect id="Rectangle-path" x="17.703" y="10.765" width="2.77" height="2.769"></rect>
                        <rect id="Rectangle-path" x="0.014" y="10.777" width="2.769" height="2.769"></rect>
                        <rect id="Rectangle-path" x="3.549" y="7.236" width="2.769" height="2.769"></rect>
                        <rect id="Rectangle-path" x="7.086" y="7.234" width="2.77" height="2.769"></rect>
                        <rect id="Rectangle-path" x="10.625" y="7.231" width="2.769" height="2.77"></rect>
                        <rect id="Rectangle-path" x="14.162" y="7.229" width="2.77" height="2.77"></rect>
                        <rect id="Rectangle-path" x="10.623" y="3.693" width="2.769" height="2.77"></rect>
                        <rect id="Rectangle-path" x="10.62" y="0.155" width="2.769" height="2.77"></rect>
                        <rect id="Rectangle-path" x="14.16" y="3.69" width="2.77" height="2.77"></rect>
                        <rect id="Rectangle-path" x="17.701" y="7.227" width="2.769" height="2.769"></rect>
                        <rect id="Rectangle-path" x="21.24" y="8.993" width="2.769" height="2.77"></rect>
                        <rect id="Rectangle-path" x="0.01" y="7.239" width="2.769" height="2.769"></rect>
                    </g>
                </g>
            </g>
        </g>
    </g>
</svg>