<?xml version="1.0" encoding="UTF-8"?>
<svg width="32px" height="32px" viewBox="0 0 32 32" version="1.1" xmlns="http://www.w3.org/2000/svg" xmlns:xlink="http://www.w3.org/1999/xlink">
    <!-- Generator: Sketch 44.1 (41455) - http://www.bohemiancoding.com/sketch -->
    <title>Saksbehandler</title>
    <desc>Created with Sketch.</desc>
    <defs></defs>
    <g id="Symbols" stroke="none" stroke-width="1" fill="none" fill-rule="evenodd">
        <g id="Applikajsonsbanner-1440" transform="translate(-1154.000000, -16.000000)">
            <g id="Infoområde">
                <g>
                    <g id="Saksbehandler" transform="translate(1154.000000, 16.000000)">
                        <g id="person-edit">
                            <g>
                                <g>
                                    <circle id="Oval-2" fill="#FFFFFF" cx="16" cy="16" r="16"></circle>
                                    <g id="Group" transform="translate(5.000000, 3.000000)" stroke="#000000">
                                        <polygon id="Shape" points="17 22.5 13.5 23.5 14.5 20 21 13.5 23.5 16"></polygon>
                                        <path d="M19,15.5 L21.5,18" id="Shape"></path>
                                        <path d="M14.5,20 L17,22.5" id="Shape"></path>
                                        <path d="M15.5,15.518 L12.5,14.5 L12.5,11.578 M7.5,11.781 L7.5,14.5 L2.49,16.288 C1.297,16.715 0.5,17.846 0.5,19.114 L0.5,21.5 L11,21.5" id="Shape"></path>
                                        <ellipse id="Oval" cx="9.875" cy="6.5" rx="5" ry="6"></ellipse>
                                        <path d="M14.886,5.969 L14.375,6 C12.672,6.328 11.578,5.71 10.641,4.07 C10.078,5.148 8.319,6 6.875,6 C6.164,6 5.552,5.854 4.939,5.533" id="Shape"></path>
                                    </g>
                                </g>
                            </g>
                        </g>
                    </g>
                </g>
            </g>
        </g>
    </g>
</svg>