<?xml version="1.0" encoding="UTF-8"?>
<svg width="22px" height="29px" viewBox="0 0 22 29" version="1.1" xmlns="http://www.w3.org/2000/svg">
    <!-- Generator: Sketch 44.1 (41455) - http://www.bohemiancoding.com/sketch -->
    <title>rutine</title>
    <desc>Created with Sketch.</desc>
    <defs></defs>
    <g id="Symbols" stroke="none" stroke-width="1" fill="none" fill-rule="evenodd">
        <g id="Applikajsonsbanner-1440" transform="translate(-1042.000000, -16.000000)">
            <g id="rutine" transform="translate(1042.000000, 16.000000)">
                <g id="task-checklist">
                    <path d="M19.5263158,4.04166667 L19.5263158,2.41666667 L13.8356842,2.41666667 C13.5693684,1.044 12.3697895,0 11,0 C9.63021053,0 8.43063158,1.04279167 8.16431579,2.41666667 L2.47368421,2.41666667 L2.47368421,4.04166667 L19.5263158,4.04166667 Z" id="Shape" fill="#FFFFFF" fill-rule="nonzero"></path>
                    <path d="M21.4210526,2.41666667 L20.6842105,2.41666667 L20.6842105,27.5833333 L1.31578947,27.5833333 L1.31578947,2.41666667 L0.578947368,2.41666667 C0.260526316,2.41666667 0,2.68733333 0,3.02083333 L0,28.3958333 C0,28.7293333 0.260526316,29 0.578947368,29 L21.4210526,29 C21.7394737,29 22,28.7293333 22,28.3958333 L22,3.02083333 C22,2.68733333 21.7394737,2.41666667 21.4210526,2.41666667 Z" id="Shape" fill="#FFFFFF" fill-rule="nonzero"></path>
                    <path d="M7.5,7.5 L17.5,7.5" id="Line" stroke="#FFFFFF" stroke-linecap="round"></path>
                    <path d="M7.5,10.5 L13.5,10.5" id="Line-Copy-2" stroke="#FFFFFF" stroke-linecap="round"></path>
                    <path d="M7.5,14.5 L17.5,14.5" id="Line-Copy-4" stroke="#FFFFFF" stroke-linecap="round"></path>
                    <path d="M7.5,17.5 L10.5,17.5" id="Line-Copy-3" stroke="#FFFFFF" stroke-linecap="round"></path>
                    <path d="M7.5,21.5 L17.5,21.5" id="Line-Copy-6" stroke="#FFFFFF" stroke-linecap="round"></path>
                    <path d="M7.5,24.5 L15.5607852,24.5" id="Line-Copy-5" stroke="#FFFFFF" stroke-linecap="round"></path>
                    <text id="1" font-family="SourceSansPro-Regular, Source Sans Pro" font-size="6" font-weight="normal" fill="#FFFFFF">
                        <tspan x="3" y="11">1</tspan>
                    </text>
                    <text id="2" font-family="SourceSansPro-Regular, Source Sans Pro" font-size="6" font-weight="normal" fill="#FFFFFF">
                        <tspan x="3" y="18">2</tspan>
                    </text>
                    <text id="3" font-family="SourceSansPro-Regular, Source Sans Pro" font-size="6" font-weight="normal" fill="#FFFFFF">
                        <tspan x="3" y="25">3</tspan>
                        <tspan x="3" y="33">	</tspan>
                    </text>
                </g>
            </g>
        </g>
    </g>
</svg>
