<?xml version="1.0" encoding="UTF-8"?>
<svg width="20px" height="20px" viewBox="0 0 20 20" version="1.1" xmlns="http://www.w3.org/2000/svg" xmlns:xlink="http://www.w3.org/1999/xlink">
    <!-- Generator: Sketch 59.1 (86144) - https://sketch.com -->
    <title>icon/ varseltrekant oppgave</title>
    <desc>Created with Sketch.</desc>
    <g id="icon/-varseltrekant-oppgave" stroke="none" stroke-width="1" fill="none" fill-rule="evenodd">
        <path d="M11.8318391,1.13272615 L19.7833056,17.0356591 C20.2892159,18.0474798 19.8790945,19.2778439 18.8672739,19.7837542 C18.582855,19.9259637 18.2692321,20 17.9512422,20 L2.04830915,20 C0.917059244,20 3.90798505e-14,19.0829408 3.90798505e-14,17.9516908 C3.90798505e-14,17.6337009 0.0740363222,17.320078 0.216245751,17.0356591 L8.16771225,1.13272615 C8.67362259,0.12090547 9.90398668,-0.289215892 10.9158074,0.216694446 C11.3122113,0.414896421 11.6336371,0.736322197 11.8318391,1.13272615 Z" id="Rectangle" fill="#FFA733"></path>
        <g id="Group" transform="translate(8.494701, 5.143687)" fill="#3E3832">
            <path d="M1.29221719,11.8460127 C1.28460223,11.8460127 1.27698727,11.8460127 1.26937231,11.8460127 C0.577680006,11.8460127 0.0116345606,11.2926588 0.000212118858,10.5996974 C-0.0124794831,9.89912096 0.545951001,9.32038391 1.24652743,9.30896147 C1.25414239,9.30896147 1.26175735,9.30769231 1.26937231,9.30769231 C1.96106462,9.30769231 2.5258409,9.86231531 2.5385325,10.5552768 C2.5512241,11.2558532 1.99152446,11.8333211 1.29221719,11.8460127 Z" id="Path"></path>
            <path d="M1.26923077,0 C1.73654863,0 2.11538462,0.378835981 2.11538462,0.846153846 L2.11538462,6.76923077 C2.11538462,7.23654863 1.73654863,7.61538462 1.26923077,7.61538462 C0.801912904,7.61538462 0.423076923,7.23654863 0.423076923,6.76923077 L0.423076923,0.846153846 C0.423076923,0.378835981 0.801912904,0 1.26923077,0 Z" id="Rectangle" fill-rule="nonzero"></path>
        </g>
    </g>
</svg>