<?xml version="1.0" encoding="UTF-8"?>
<svg width="24px" height="24px" viewBox="0 0 24 24" version="1.1" xmlns="http://www.w3.org/2000/svg" xmlns:xlink="http://www.w3.org/1999/xlink">
    <!-- Generator: Sketch 52.2 (67145) - http://www.bohemiancoding.com/sketch -->
    <title>avregning </title>
    <desc>Created with Sketch.</desc>
    <g id="avregning-" stroke="none" stroke-width="1" fill="none" fill-rule="evenodd">
        <g id="coins-2" fill="#007F2F" fill-rule="nonzero">
            <path d="M16,13 L16,11.5 L16,8.5 L16,5.5 L16,2.5 C16,0.782 11.853,0 8,0 C4.147,0 0,0.782 0,2.5 L0,5.5 L0,8.5 L0,11.5 L0,14.5 L0,17.5 C0,19.218 4.147,20 8,20 L8,21.5 C8,23.218 12.147,24 16,24 C19.853,24 24,23.218 24,21.5 L24,18.5 L24,15.5 C24,13.782 19.853,13 16,13 Z M23,18.5 C23,18.949 20.619,20 16,20 C11.381,20 9,18.949 9,18.5 L9,16.793 C10.46,17.614 13.3,18 16,18 C18.7,18 21.54,17.614 23,16.793 L23,18.5 Z M15,5.5 C15,5.949 12.619,7 8,7 C3.381,7 1,5.949 1,5.5 L1,3.793 C2.46,4.614 5.3,5 8,5 C10.7,5 13.54,4.614 15,3.793 L15,5.5 Z M8,8 C10.7,8 13.54,7.614 15,6.793 L15,8.5 C15,8.949 12.619,10 8,10 C3.381,10 1,8.949 1,8.5 L1,6.793 C2.46,7.614 5.3,8 8,8 Z M8,11 C10.7,11 13.54,10.614 15,9.793 L15,11.5 C15,11.949 12.619,13 8,13 C3.381,13 1,11.949 1,11.5 L1,9.793 C2.46,10.614 5.3,11 8,11 Z M1,12.793 C2.46,13.614 5.3,14 8,14 C8.5,14 9.004,13.986 9.504,13.959 C8.579,14.348 8,14.858 8,15.5 L8,16 C3.381,16 1,14.949 1,14.5 L1,12.793 Z M23,15.5 C23,15.949 20.619,17 16,17 C11.381,17 9,15.949 9,15.5 C9,15.051 11.381,14 16,14 C20.619,14 23,15.051 23,15.5 Z M14.496,13.041 C14.68,12.964 14.845,12.88 15,12.793 L15,13.02 C14.832,13.026 14.663,13.032 14.496,13.041 Z M8,1 C12.619,1 15,2.051 15,2.5 C15,2.949 12.619,4 8,4 C3.381,4 1,2.949 1,2.5 C1,2.051 3.381,1 8,1 Z M1,17.5 L1,15.793 C2.46,16.614 5.3,17 8,17 L8,18.5 L8,19 C3.381,19 1,17.949 1,17.5 Z M16,23 C11.381,23 9,21.949 9,21.5 L9,19.793 C10.46,20.614 13.3,21 16,21 C18.7,21 21.54,20.614 23,19.793 L23,21.5 C23,21.949 20.618,23 16,23 Z" id="Shape"></path>
        </g>
    </g>
</svg>