<?xml version="1.0" encoding="UTF-8"?>
<svg width="16px" height="16px" viewBox="0 0 16 16" version="1.1" xmlns="http://www.w3.org/2000/svg" xmlns:xlink="http://www.w3.org/1999/xlink">
    <!-- Generator: sketchtool 60.1 (101010) - https://sketch.com -->
    <title>0B55E427-05AB-476D-AE0D-BA7C9018BE3A@5.00x</title>
    <desc>Created with sketchtool.</desc>
    <g id="Beregning" stroke="none" stroke-width="1" fill="none" fill-rule="evenodd">
        <g id="Beregning-Arbeidstaker-Avslag-1/2-G" transform="translate(-649.000000, -393.000000)" fill-rule="nonzero">
            <g id="ikon-copy" transform="translate(649.000000, 393.000000)">
                <g id="remove-circle" fill="#A13A28">
                    <path d="M7.99930435,0 C3.59652174,0 0.00834782609,3.58121739 -1.57069166e-05,7.984 C-0.00417391304,10.1210435 0.823652174,12.1314783 2.33182609,13.645913 C3.84,15.1596522 5.84765217,15.9958261 7.98469565,16 L8,16 C12.402087,16 15.9909565,12.418087 16.0000146,8.0146087 C16.0083478,3.60417391 12.4264348,0.00834782609 7.99930435,0 Z" id="Shape"></path>
                </g>
                <path d="M8,7.10082619 L10.2479345,4.85289166 C10.4962345,4.60459167 10.8988083,4.60459167 11.1471083,4.85289166 C11.3954083,5.10119165 11.3954083,5.50376548 11.1471083,5.75206547 L8.89917381,8 L11.1471083,10.2479345 C11.3954083,10.4962345 11.3954083,10.8988083 11.1471083,11.1471083 C10.8988083,11.3954083 10.4962345,11.3954083 10.2479345,11.1471083 L8,8.89917381 L5.75206547,11.1471083 C5.50376548,11.3954083 5.10119165,11.3954083 4.85289166,11.1471083 C4.60459167,10.8988083 4.60459167,10.4962345 4.85289166,10.2479345 L7.10082619,8 L4.85289166,5.75206547 C4.60459167,5.50376548 4.60459167,5.10119165 4.85289166,4.85289166 C5.10119165,4.60459167 5.50376548,4.60459167 5.75206547,4.85289166 L8,7.10082619 Z" id="Path" fill="#FFFFFF"></path>
            </g>
        </g>
    </g>
</svg>