<?xml version="1.0" encoding="UTF-8"?>
<svg width="24px" height="20px" viewBox="0 0 24 20" version="1.1" xmlns="http://www.w3.org/2000/svg" xmlns:xlink="http://www.w3.org/1999/xlink">
    <!-- Generator: Sketch 62 (91390) - https://sketch.com -->
    <title>Icons/baby/filled</title>
    <desc>Created with Sketch.</desc>
    <g id="høyrefeltet" stroke="none" stroke-width="1" fill="none" fill-rule="evenodd">
        <g id="Høyrefelt-ved-1600-x-900" transform="translate(-982.000000, -67.000000)" fill="#78706A">
            <g id="Group-2" transform="translate(982.000000, 64.000000)">
                <g id="Icons/baby/filled">
                    <path d="M17.5,18 C18.8807119,18 20,19.1192881 20,20.5 C20,21.8807119 18.8807119,23 17.5,23 C16.1192881,23 15,21.8807119 15,20.5 C15,19.1192881 16.1192881,18 17.5,18 Z M8.5,18 C9.88071187,18 11,19.1192881 11,20.5 C11,21.8807119 9.88071187,23 8.5,23 C7.11928813,23 6,21.8807119 6,20.5 C6,19.1192881 7.11928813,18 8.5,18 Z M17.5,20 C17.2238576,20 17,20.2238576 17,20.5 C17,20.7761424 17.2238576,21 17.5,21 C17.7761424,21 18,20.7761424 18,20.5 C18,20.2238576 17.7761424,20 17.5,20 Z M8.5,20 C8.22385763,20 8,20.2238576 8,20.5 C8,20.7761424 8.22385763,21 8.5,21 C8.77614237,21 9,20.7761424 9,20.5 C9,20.2238576 8.77614237,20 8.5,20 Z M0.515354119,6.28071137 C2.3702281,6.28071137 3.82304684,8.03869845 4.15701151,10.4609609 L6.47819166,10.4610013 C11.8819546,10.4598195 20.8318396,10.4574129 23.9130435,10.4615385 C23.9130435,14.6052425 21.5171775,18 17.2101848,18 L8.52670446,18 C5.42407822,18 2.90890269,15.3481481 2.90890269,12.0769231 C2.90890269,11.5169103 2.98261556,10.9750496 3.1203695,10.4615385 L3.14699825,10.460596 C2.84673925,8.56517604 1.76453986,7.28071137 0.515354119,7.28071137 C0.239211744,7.28071137 0.0153541194,7.05685375 0.0153541194,6.78071137 C0.0153541194,6.504569 0.239211744,6.28071137 0.515354119,6.28071137 Z M16.66339,3 C21.1434472,3 23.9130435,6.40317651 23.9130435,9.46153846 L22.5457621,9.46106852 C20.3312692,9.4597871 17.2065716,9.45632727 13.3042187,9.45632727 L16.66339,3 Z" id="Icon"></path>
                </g>
            </g>
        </g>
    </g>
</svg>