<?xml version="1.0" encoding="UTF-8"?>
<svg width="28px" height="28px" viewBox="0 0 28 28" version="1.1" xmlns="http://www.w3.org/2000/svg" xmlns:xlink="http://www.w3.org/1999/xlink">
    <!-- Generator: Sketch 47.1 (45422) - http://www.bohemiancoding.com/sketch -->
    <title>behandle valgt</title>
    <desc>Created with Sketch.</desc>
    <defs></defs>
    <g id="Symbols" stroke="none" stroke-width="1" fill="none" fill-rule="evenodd">
        <g id="behandle-valgt" fill-rule="nonzero" fill="#FF9100">
            <g id="Filled_Version">
                <g>
                    <path d="M14.2388743,0 L13.9893033,0.00243435924 C10.2396515,0.0681620588 6.71035265,1.58355069 4.05272606,4.26986611 C1.37562076,6.97565641 -0.0621515728,10.5176491 0.00237165633,14.2446531 C0.136287792,21.9579204 6.1807752,28 13.7628633,28 L14.0099995,27.9975656 C21.857485,27.8624587 28.1332821,21.4722657 27.9981486,13.7565641 C27.8642324,6.04329682 21.819745,0 14.2388743,0 Z M13.3915504,7.30307773 C13.3915504,6.96713615 13.6642524,6.69448792 14.0002601,6.69448792 C14.3350505,6.69448792 14.6089698,6.96713615 14.6089698,7.30307773 L14.6089698,15.8233351 C14.6089698,16.1592766 14.3350505,16.4319249 14.0002601,16.4319249 C13.6642524,16.4319249 13.3915504,16.1592766 13.3915504,15.8233351 L13.3915504,7.30307773 Z M14.0221737,21.3006434 L14.0002601,21.3006434 C13.3367665,21.3006434 12.7937975,20.7699531 12.7828407,20.105373 C12.7706665,19.4334898 13.3063311,18.8784559 13.9783466,18.8675013 C13.9856511,18.8675013 13.9929556,18.8662841 14.0002601,18.8662841 C14.6637537,18.8662841 15.2055053,19.3981916 15.2176795,20.0627717 C15.2298537,20.7346548 14.6929718,21.2884716 14.0221737,21.3006434 Z" id="Shape"></path>
                </g>
            </g>
        </g>
    </g>
</svg>
