<?xml version="1.0" encoding="UTF-8"?>
<svg width="28px" height="28px" viewBox="0 0 28 28" version="1.1" xmlns="http://www.w3.org/2000/svg" xmlns:xlink="http://www.w3.org/1999/xlink">
    <!-- Generator: Sketch 47.1 (45422) - http://www.bohemiancoding.com/sketch -->
    <title>behandle</title>
    <desc>Created with Sketch.</desc>
    <defs></defs>
    <g id="Symbols" stroke="none" stroke-width="1" fill="none" fill-rule="evenodd">
        <g id="behandle" stroke="#FF9100">
            <g id="behandle-">
                <path d="M27.4980188,13.7643377 C27.3682955,6.26155955 21.4148957,0.372874132 14.0086596,0.502099324 C6.50482113,0.631792333 0.372765181,6.8292559 0.502019413,14.2331601 C0.631729748,21.7376578 6.58436205,27.6259603 13.9912978,27.4979421 C21.4964046,27.3670133 27.6260562,21.1708242 27.4980188,13.7643363 Z M14.5000191,15.9062721 L13.5000191,15.9062721 L13.5000191,6.99855194 L14.5000191,6.99855194 L14.5000191,15.9062721 Z M13.5000191,15.9062721 L13.5000191,6.99855194 L14.5000191,6.99855194 L14.5000191,15.9062721 L13.5000191,15.9062721 Z" id="Shape"></path>
                <path d="M14.6086957,19.3943028 C14.6086957,19.7187166 14.336,19.982009 14,19.982009 C13.664,19.982009 13.3913043,19.7187166 13.3913043,19.3943028 C13.3913043,19.0698891 13.664,18.8065967 14,18.8065967 C14.336,18.8065967 14.6086957,19.0698891 14.6086957,19.3943028 Z" id="Shape" stroke-linejoin="round"></path>
            </g>
        </g>
    </g>
</svg>
