<?xml version="1.0" encoding="UTF-8"?>
<svg width="32px" height="32px" viewBox="0 0 32 32" version="1.1" xmlns="http://www.w3.org/2000/svg" xmlns:xlink="http://www.w3.org/1999/xlink">
    <!-- Generator: Sketch 43.2 (39069) - http://www.bohemiancoding.com/sketch -->
    <title>Beslutter</title>
    <desc>Created with Sketch.</desc>
    <defs></defs>
    <g id="Symbols" stroke="none" stroke-width="1" fill="none" fill-rule="evenodd">
        <g id="Beslutter">
            <circle id="Oval-2" fill="#06893A" cx="16" cy="16" r="16"></circle>
            <g id="person-favorite-star-2" transform="translate(5.000000, 4.000000)" fill-rule="nonzero" fill="#FFFFFF">
                <g id="Filled_Version">
                    <g id="Group">
                        <path d="M13.923625,19.0938333 L12.2455833,17.655375 C11.73,17.212625 11.5498333,16.5609583 11.776,15.9543333 C11.9964167,15.3572917 12.5714167,14.9720417 13.2384167,14.9720417 L15.1694583,14.9720417 L16.0607083,13.227875 C15.3199167,12.8895833 14.3941667,12.5829167 13.3677917,12.244625 C12.7697917,12.0472083 12.1545417,11.8440417 11.5613333,11.6274583 L11.5613333,9.841125 C12.0270833,9.52966667 12.8867083,8.73041667 12.98925,7.03129167 C13.34,6.80704167 13.561375,6.31829167 13.561375,5.69633333 C13.561375,5.15008333 13.39175,4.70829167 13.112875,4.45529167 C13.34575,3.86591667 13.7271667,2.837625 13.4645833,1.78154167 C13.147375,0.501208333 11.3370833,0.0479166667 9.88425,0.0479166667 L9.88425,0.0479166667 C8.59720833,0.0479166667 7.03129167,0.404416667 6.46970833,1.37425 C5.97616667,1.34741667 5.591875,1.47870833 5.32258333,1.77291667 C4.68145833,2.469625 5.037,3.76433333 5.24879167,4.49458333 C5.13666667,4.585625 5.04083333,4.70445833 4.96608333,4.84916667 C4.83958333,5.09066667 4.77058333,5.40308333 4.77058333,5.729875 C4.77058333,6.33841667 4.99195833,6.81470833 5.344625,7.03416667 C5.448125,8.73041667 6.30583333,9.52870833 6.770625,9.84016667 L6.770625,11.6265 C6.178375,11.8430833 5.563125,12.04625 4.96608333,12.2436667 C2.71208333,12.9873333 0.933416667,13.5747917 0.565416667,14.6835833 C0.0939166667,16.1076667 0.0642083333,18.6252083 0.0622916667,18.7315833 C0.0622916667,18.8590417 0.111166667,18.9826667 0.202208333,19.0737083 C0.292291667,19.16475 0.414958333,19.2155417 0.541458333,19.2155417 L13.8805,19.2155417 L13.923625,19.0938333 Z" id="Shape"></path>
                        <path d="M22.908,16.2878333 C22.839,16.1 22.6329583,15.9294167 22.3425833,15.9294167 L19.8279167,15.9294167 L18.3329167,12.9835 C18.2236667,12.7659583 18.0185833,12.6317917 17.7972083,12.6317917 C17.5758333,12.6317917 17.37075,12.7659583 17.2615,12.980625 L15.755,15.9294167 L13.2374583,15.9294167 C12.9681667,15.9294167 12.756375,16.0635833 12.673,16.286875 C12.589625,16.511125 12.6624583,16.7507083 12.8685,16.928 L15.0487083,18.79675 L13.8268333,22.1815833 L13.8268333,22.1825417 C13.6965,22.5419167 13.8527083,22.6990833 14.0568333,22.951125 C14.306,22.951125 14.4535833,22.9722083 14.659625,22.8351667 L15.9083333,22.0042917 L17.7895417,20.7507917 L20.909875,22.8284583 L20.9175417,22.83325 C21.1417917,22.9894583 21.295125,22.9501667 21.5577083,22.9348333 L21.7005,22.7316667 C21.7934583,22.6022917 21.8289167,22.3905 21.7532083,22.180625 C21.3219583,20.984625 21.6085,21.778125 20.5322917,18.79675 L22.7125,16.9270417 C22.9319583,16.741125 22.9779583,16.4747083 22.908,16.2878333 Z" id="Shape"></path>
                    </g>
                </g>
            </g>
        </g>
    </g>
</svg>