<?xml version="1.0" encoding="UTF-8"?>
<svg width="11px" height="16px" viewBox="0 0 11 16" version="1.1" xmlns="http://www.w3.org/2000/svg" xmlns:xlink="http://www.w3.org/1999/xlink">
    <!-- Generator: Sketch 47.1 (45422) - http://www.bohemiancoding.com/sketch -->
    <title>Currentday</title>
    <desc>Created with Sketch.</desc>
    <defs>
        <path d="M4.5,14 C4.5,14 0,7.08765217 0,4.56521739 C0,2.044 2.0142,0 4.5,0 C6.9852,0 9,2.044 9,4.56521739 C9,7.08765217 4.5,14 4.5,14 Z" id="path-1"></path>
    </defs>
    <g id="Uttaksplan" stroke="none" stroke-width="1" fill="none" fill-rule="evenodd">
        <g id="Mor:-aklare-fakta-uttak-2-Copy-7" transform="translate(-387.000000, -286.000000)">
            <g id="Hele-grafen" transform="translate(83.000000, 283.000000)">
                <g id="Nåtidspunkt-Copy" transform="translate(305.000000, 4.000000)">
                    <g id="Currentday">
                        <g id="Stroke-6482-+-Stroke-6483">
                            <g id="Stroke-6482" stroke-linecap="round" stroke-linejoin="round">
                                <use fill="#9B9B9B" fill-rule="evenodd" xlink:href="#path-1"></use>
                                <path stroke="#FFFFFF" stroke-width="1" d="M4.08097147,14.2727913 C4.04477983,14.2171981 3.97781022,14.1130763 3.88444836,13.9659272 C3.72934439,13.7214654 3.55664225,13.4450116 3.37072285,13.1420557 C2.83953573,12.2764859 2.30831964,11.3711664 1.8119948,10.4696678 C1.54420808,9.98327402 1.29354458,9.51033335 1.06308597,9.05462664 C0.0652035839,7.0814233 -0.5,5.55595318 -0.5,4.56521739 C-0.5,1.76925511 1.73663117,-0.5 4.5,-0.5 C7.26296558,-0.5 9.5,1.76945521 9.5,4.56521739 C9.5,5.55595318 8.93479642,7.0814233 7.93691403,9.05462664 C7.70645542,9.51033335 7.45579192,9.98327402 7.1880052,10.4696678 C6.69168036,11.3711664 6.16046427,12.2764859 5.62927715,13.1420557 C5.44335775,13.4450116 5.27065561,13.7214654 5.11555164,13.9659272 C5.02218978,14.1130763 4.95522017,14.2171981 4.91902853,14.2727913 L4.5,14.9164515 L4.08097147,14.2727913 Z"></path>
                            </g>
                            <path d="M6,4.2 C6,4.97326667 5.328,5.6 4.5,5.6 C3.6715,5.6 3,4.97326667 3,4.2 C3,3.4272 3.6715,2.8 4.5,2.8 C5.328,2.8 6,3.4272 6,4.2 L6,4.2 Z" id="Stroke-6483" fill="#FFFFFF"></path>
                        </g>
                    </g>
                </g>
            </g>
        </g>
    </g>
</svg>
