
<!-- Generator: Adobe Illustrator 16.0.0, SVG Export Plug-In . SVG Version:
6.00 Build 0) -->
<svg contentScriptType="text/ecmascript" zoomAndPan="magnify"
     xmlns:xlink="http://www.w3.org/1999/xlink" contentStyleType="text/css"
     id="Filled_Version" enable-background="new 0 0 24 24" version="1.1"
     xml:space="preserve" width="24px" preserveAspectRatio="xMidYMid meet"
     viewBox="0 0 24 24" height="24px" xmlns="http://www.w3.org/2000/svg"
     x="0px" y="0px">
    <g fill="#0067c5">
        <circle fill="#0067c5" r="0.75" cx="3.75" cy="1.25"/>
        <circle fill="#0067c5" r="0.75" cx="5.75" cy="1.25"/>
        <circle fill="#0067c5" r="0.75" cx="7.75" cy="1.25"/>
        <circle fill="#0067c5" r="0.75" cx="9.75" cy="1.25"/>
        <circle fill="#0067c5" r="0.75" cx="11.75" cy="1.25"/>
        <circle fill="#0067c5" r="0.75" cx="13.75" cy="1.25"/>
        <circle fill="#0067c5" r="0.75" cx="15.75" cy="1.25"/>
        <circle fill="#0067c5" r="0.75" cx="15.75" cy="3.25"/>
        <circle fill="#0067c5" r="0.75" cx="15.75" cy="5.25"/>
        <circle fill="#0067c5" r="0.75" cx="18.25" cy="3.25"/>
        <circle fill="#0067c5" r="0.75" cx="15.75" cy="7.25"/>
        <circle fill="#0067c5" r="0.75" cx="19.75" cy="4.75"/>
        <circle fill="#0067c5" r="0.75" cx="5.75" cy="23.25"/>
        <circle fill="#0067c5" r="0.75" cx="7.75" cy="23.25"/>
        <circle fill="#0067c5" r="0.75" cx="9.75" cy="23.25"/>
        <circle fill="#0067c5" r="0.75" cx="11.75" cy="23.25"/>
        <circle fill="#0067c5" r="0.75" cx="13.75" cy="23.25"/>
        <circle fill="#0067c5" r="0.75" cx="15.75" cy="23.25"/>
        <circle fill="#0067c5" r="0.75" cx="17.75" cy="23.25"/>
        <circle fill="#0067c5" r="0.75" cx="19.75" cy="23.25"/>
        <circle fill="#0067c5" r="0.75" cx="3.75" cy="3.25"/>
        <circle fill="#0067c5" r="0.75" cx="3.75" cy="5.25"/>
        <circle fill="#0067c5" r="0.75" cx="3.75" cy="7.25"/>
        <circle fill="#0067c5" r="0.75" cx="21.75" cy="7.25"/>
        <circle fill="#0067c5" r="0.75" cx="19.75" cy="7.25"/>
        <circle fill="#0067c5" r="0.75" cx="17.75" cy="7.25"/>
        <circle fill="#0067c5" r="0.75" cx="3.75" cy="9.25"/>
        <circle fill="#0067c5" r="0.75" cx="21.75" cy="9.25"/>
        <circle fill="#0067c5" r="0.75" cx="3.75" cy="11.25"/>
        <circle fill="#0067c5" r="0.75" cx="21.75" cy="11.25"/>
        <circle fill="#0067c5" r="0.75" cx="3.75" cy="13.25"/>
        <circle fill="#0067c5" r="0.75" cx="21.75" cy="13.25"/>
        <circle fill="#0067c5" r="0.75" cx="3.75" cy="15.25"/>
        <circle fill="#0067c5" r="0.75" cx="21.75" cy="15.25"/>
        <circle fill="#0067c5" r="0.75" cx="3.75" cy="17.25"/>
        <circle fill="#0067c5" r="0.75" cx="21.75" cy="17.25"/>
        <circle fill="#0067c5" r="0.75" cx="3.75" cy="19.25"/>
        <circle fill="#0067c5" r="0.75" cx="21.75" cy="19.25"/>
        <circle fill="#0067c5" r="0.75" cx="3.75" cy="21.25"/>
        <circle fill="#0067c5" r="0.75" cx="21.75" cy="21.25"/>
        <circle fill="#0067c5" r="0.75" cx="3.75" cy="23.25"/>
        <circle fill="#0067c5" r="0.75" cx="21.75" cy="23.25"/></g></svg>