<?xml version="1.0" encoding="UTF-8"?>
<svg width="25px" height="24px" viewBox="0 0 25 24" version="1.1" xmlns="http://www.w3.org/2000/svg" xmlns:xlink="http://www.w3.org/1999/xlink">
    <!-- Generator: Sketch 44.1 (41455) - http://www.bohemiancoding.com/sketch -->
    <title>endret felt</title>
    <desc>Created with Sketch.</desc>
    <defs></defs>
    <g id="Symbols" stroke="none" stroke-width="1" fill="none" fill-rule="evenodd">
        <g id="endret-felt" fill-rule="nonzero" fill="#FF9100">
            <g id="person-edit-1">
                <g id="Filled_Version">
                    <g id="Group">
                        <polygon id="Shape" points="18.16 15.633 18.16 15.633 14.499 19.293 17.706 22.5 18.207 22 18.208 22 19.499 20.708 19.499 20.708 22.501 17.706 19.294 14.5"></polygon>
                        <path d="M13.256,19.123 L17.118,15.261 L13.999,14.148 L13.999,11.932 C15.496,10.769 16.487,8.77 16.487,6.499 C16.487,6.436 16.48,6.376 16.479,6.314 C16.087,6.421 15.735,6.5 15.487,6.5 C13.833,6.5 12.688,6.235 11.726,4.946 C10.873,5.844 9.364,6.5 7.987,6.5 C7.216,6.5 6.272,6.038 5.551,5.562 C5.514,5.869 5.487,6.18 5.487,6.5 C5.487,8.782 6.49,10.79 7.999,11.95 L7.999,14.149 L3.321,15.819 C1.932,16.315 0.999,17.64 0.999,19.115 L0.999,22 L12.368,22 L13.128,19.34 C13.151,19.257 13.196,19.183 13.256,19.123 Z" id="Shape"></path>
                        <path d="M11.31,3.839 L11.734,3.028 L12.188,3.822 C13.008,5.258 13.869,5.5 15.488,5.5 C15.665,5.5 16.043,5.404 16.39,5.304 C15.913,2.29 13.675,0 10.987,0 C8.55,0 6.48,1.885 5.761,4.485 C6.382,4.948 7.37,5.5 7.987,5.5 C9.296,5.5 10.849,4.724 11.31,3.839 Z" id="Shape"></path>
                        <path d="M13.408,22 L13.408,22 L13.018,23.363 C12.968,23.538 13.017,23.725 13.145,23.853 C13.269,23.977 13.452,24.033 13.636,23.981 L16.854,23.062 L13.938,20.145 L13.408,22 Z" id="Shape"></path>
                        <path d="M24.854,14.645 L22.354,12.145 C22.159,11.951 21.842,11.951 21.647,12.145 L20.001,13.792 L23.208,17 L24.854,15.353 C24.948,15.26 25,15.133 25,15 C25,14.867 24.948,14.739 24.854,14.645 Z" id="Shape"></path>
                    </g>
                </g>
            </g>
        </g>
    </g>
</svg>