<?xml version="1.0" encoding="UTF-8"?>
<svg width="13px" height="21px" viewBox="0 0 13 21" version="1.1" xmlns="http://www.w3.org/2000/svg" xmlns:xlink="http://www.w3.org/1999/xlink">
    <!-- Generator: Sketch 49.3 (51167) - http://www.bohemiancoding.com/sketch -->
    <title>hourglass</title>
    <desc>Created with Sketch.</desc>
    <defs></defs>
    <g id="Beregning" stroke="none" stroke-width="1" fill="none" fill-rule="evenodd">
        <g id="hourglass" transform="translate(-3.000000, -1.000000)">
            <g id="ic-hourglass-empty-24px" transform="translate(-2.000000, 0.000000)">
                <polygon id="Shape" points="0 0 24 0 24 24 0 24"></polygon>
                <path d="M11.0769231,11.0769231 L15.0769231,7.07692308 L7.07692308,7.07692308 L11.0769231,11.0769231 Z M15.0769231,15.5769231 L15.0769231,19.0769231 L7.07692308,19.0769231 L7.07692308,15.5769231 L11.0769231,11.5769231 L15.0769231,15.5769231 Z M5.07692308,1.07692308 L5.07692308,7.07692308 L9.07692308,11.0769231 L5.07692308,15.0769231 L5.07692308,21.0769231 L17.0769231,21.0769231 L17.0769231,15.0869231 L13.0769231,11.0769231 L17.0769231,7.08692308 L17.0769231,1.07692308 L5.07692308,1.07692308 Z M11.0769231,10.5769231 L7.07692308,6.57692308 L7.07692308,3.07692308 L15.0769231,3.07692308 L15.0769231,6.57692308 L11.0769231,10.5769231 Z M11.0769231,16.0769231 L15.0769231,19.0769231 L7.07692308,19.0769231 L11.0769231,16.0769231 Z" id="Shape" fill="#FF9100" fill-rule="nonzero"></path>
            </g>
        </g>
    </g>
</svg>