<?xml version="1.0" encoding="UTF-8"?>
<svg width="32px" height="32px" viewBox="0 0 32 32" version="1.1" xmlns="http://www.w3.org/2000/svg" xmlns:xlink="http://www.w3.org/1999/xlink">
    <!-- Generator: Sketch 43.2 (39069) - http://www.bohemiancoding.com/sketch -->
    <title>maskin</title>
    <desc>Created with Sketch.</desc>
    <defs></defs>
    <g id="Symbols" stroke="none" stroke-width="1" fill="none" fill-rule="evenodd">
        <g id="maskin">
            <g id="cog">
                <g id="Filled_Version">
                    <circle id="Oval-2" fill="#757575" cx="16" cy="16" r="16"></circle>
                    <path d="M26.5416667,14.1666667 L23.9255,14.1666667 C23.7421667,13.4425 23.5093333,12.6385833 23.2123333,12.029 L25.075,10.1663333 C25.1620833,10.0801667 25.20975,9.96283333 25.20975,9.84183333 C25.20975,9.72083333 25.1611667,9.6035 25.075,9.51733333 L22.4808333,6.92683333 C22.3020833,6.74716667 22.0115,6.74716667 21.83275,6.92683333 L19.9700833,8.78858333 C19.3605,8.49158333 18.5565833,8.25875 17.8333333,8.07633333 L17.8333333,5.45833333 C17.8333333,5.20533333 17.628,5 17.375,5 L14.625,5 C14.3729167,5 14.1666667,5.20533333 14.1666667,5.45833333 L14.1666667,8.07633333 C13.4434167,8.25875 12.6395,8.49158333 12.0299167,8.78858333 L10.16725,6.92683333 C9.98758333,6.74716667 9.69791667,6.74716667 9.51916667,6.92683333 L6.92591667,9.51825 C6.74716667,9.69608333 6.74716667,9.98758333 6.92591667,10.1663333 L8.7895,12.0299167 C8.49341667,12.63675 8.25966667,13.4415833 8.07541667,14.1666667 L5.45833333,14.1666667 C5.20625,14.1666667 5,14.372 5,14.625 L5,17.375 C5,17.628 5.20625,17.8333333 5.45833333,17.8333333 L8.07541667,17.8333333 C8.25875,18.5584167 8.4925,19.3623333 8.78858333,19.9700833 L6.925,21.8336667 C6.83883333,21.9198333 6.79116667,22.03625 6.79116667,22.1581667 C6.79116667,22.2800833 6.83975,22.3965 6.925,22.4826667 L9.51916667,25.075 C9.6915,25.2473333 9.99583333,25.2473333 10.16725,25.075 L12.0299167,23.2123333 C12.6376667,23.5075 13.4415833,23.74125 14.1666667,23.9255 L14.1666667,26.5416667 C14.1666667,26.7946667 14.3729167,27 14.625,27 L17.375,27 C17.628,27 17.8333333,26.7946667 17.8333333,26.5416667 L17.8333333,23.9255 C18.5584167,23.74125 19.3623333,23.5075 19.9700833,23.2123333 L21.8345833,25.075 C22.0133333,25.25375 22.3039167,25.25375 22.4826667,25.075 L25.0740833,22.4826667 C25.25375,22.3039167 25.25375,22.0133333 25.0740833,21.8345833 L23.2114167,19.971 C23.5075,19.36325 23.74125,18.5593333 23.9245833,17.83425 L26.5416667,17.83425 C26.7946667,17.83425 27,17.6289167 27,17.3759167 L27,14.6259167 C27,14.372 26.7946667,14.1666667 26.5416667,14.1666667 Z M16,19.6666667 C13.97875,19.6666667 12.3333333,18.02125 12.3333333,16 C12.3333333,13.97875 13.97875,12.3333333 16,12.3333333 C18.0221667,12.3333333 19.6666667,13.97875 19.6666667,16 C19.6666667,18.02125 18.0221667,19.6666667 16,19.6666667 Z" id="Shape" fill="#FFFFFF" fill-rule="nonzero"></path>
                </g>
            </g>
        </g>
    </g>
</svg>