<svg xmlns="http://www.w3.org/2000/svg" width="20" height="20" viewBox="0 0 28 28"><g stroke="#ffffff" stroke-linejoin="round" stroke-miterlimit="10" fill="none"><path stroke-linecap="round" d="M17 22.5l-3.5 1 1-3.5 6.5-6.5 2.5 2.5z"/><path d="M19 15.5l2.5 2.5"/><path stroke-linecap="round" d="M14.5 20l2.5 2.5"/><path d="M15.5 15.518l-3-1.018v-2.922M7.5 11.781v2.719l-5.01 1.788c-1.193.427-1.99 1.558-1.99 2.826v2.386h10.5"/><ellipse cx="9.875" cy="6.5" rx="5" ry="6"/><path d="M14.886 5.969l-.511.031c-1.703.328-2.797-.29-3.734-1.93-.563 1.078-2.322 1.93-3.766 1.93-.711 0-1.323-.146-1.936-.467"/></g></svg>
