<?xml version="1.0" encoding="UTF-8"?>
<svg width="59px" height="19px" viewBox="0 0 59 19" version="1.1" xmlns="http://www.w3.org/2000/svg" xmlns:xlink="http://www.w3.org/1999/xlink">
    <!-- Generator: Sketch 49.3 (51167) - http://www.bohemiancoding.com/sketch -->
    <title>Overlapp</title>
    <desc>Created with Sketch.</desc>
    <defs></defs>
    <g id="Søknadsperioder" stroke="none" stroke-width="1" fill="none" fill-rule="evenodd">
        <g id="Utsettelse-inntektsmelding-tilpasset-åpnet" transform="translate(-54.000000, -1107.000000)">
            <g id="medlemskap-lukket" transform="translate(27.000000, 445.000000)">
                <g id="Overlapp" transform="translate(27.000000, 662.000000)">
                    <g>
                        <path d="M4,10 L39,10 C41.209139,10 43,11.790861 43,14 L43,15 C43,17.209139 41.209139,19 39,19 L4,19 C1.790861,19 2.705415e-16,17.209139 0,15 L0,14 C-2.705415e-16,11.790861 1.790861,10 4,10 Z" id="Rectangle-2" fill="#007F2F"></path>
                        <path d="M27,10 L39,10 C41.209139,10 43,11.790861 43,14 L43,15 C43,17.209139 41.209139,19 39,19 L27,19 L27,10 Z" id="Rectangle-2-Copy-4" fill="#FF9100"></path>
                        <rect id="Rectangle-2-Copy-3" fill="#007F2F" x="27" y="0" width="32" height="9" rx="4.5"></rect>
                        <path d="M31,0 L43,0 L43,9 L31,9 C28.790861,9 27,7.209139 27,5 L27,4 C27,1.790861 28.790861,4.05812251e-16 31,0 Z" id="Rectangle-2-Copy-5" fill="#FF9100"></path>
                    </g>
                </g>
            </g>
        </g>
    </g>
</svg>