<?xml version="1.0" encoding="utf-8"?>
<!-- Generator: Adobe Illustrator 16.0.0, SVG Export Plug-In . SVG Version: 6.00 Build 0)  -->
<svg version="1.1" id="Filled_Version" xmlns="http://www.w3.org/2000/svg" xmlns:xlink="http://www.w3.org/1999/xlink" x="0px"
	 y="0px" width="24px" height="24px" viewBox="0 0 24 24" enable-background="new 0 0 24 24" xml:space="preserve">
<g fill="#FF9100">
	<path d="M12.255,19.123l5.057-5.056c-0.842-0.486-2.049-0.886-3.428-1.341c-0.624-0.206-1.266-0.418-1.885-0.644v-1.864
		c0.486-0.325,1.383-1.159,1.49-2.932c0.366-0.234,0.597-0.744,0.597-1.393c0-0.57-0.177-1.031-0.469-1.295
		c0.244-0.615,0.642-1.688,0.367-2.79C13.653,0.474,11.765,0,10.249,0l0,0C8.906,0,7.272,0.372,6.687,1.384
		C6.171,1.356,5.77,1.494,5.488,1.8C4.819,2.526,5.19,3.878,5.411,4.64c-0.116,0.096-0.217,0.22-0.295,0.37
		C4.984,5.262,4.912,5.588,4.912,5.929c0,0.635,0.23,1.132,0.599,1.361c0.108,1.77,1.003,2.603,1.488,2.928v1.864
		c-0.618,0.226-1.26,0.438-1.883,0.644c-2.352,0.776-4.208,1.389-4.592,2.546c-0.492,1.486-0.523,4.113-0.525,4.224
		c-0.001,0.133,0.051,0.262,0.146,0.357C0.238,19.947,0.366,20,0.499,20h11.439l0.189-0.661
		C12.151,19.257,12.194,19.183,12.255,19.123z"/>
	<polygon points="18.114,14.679 18.114,14.679 13.499,19.293 16.706,22.5 21.5,17.706 18.293,14.499 	"/>
	<path d="M12.019,23.363c-0.051,0.175-0.002,0.363,0.127,0.491C12.24,23.949,12.368,24,12.499,24c0.046,0,0.092-0.006,0.137-0.019
		l3.218-0.919l-2.916-2.916L12.019,23.363z"/>
	<path d="M23.854,14.646l-2.5-2.5c-0.195-0.195-0.512-0.195-0.707,0L19,13.792l3.207,3.207l1.647-1.646
		c0.093-0.094,0.146-0.221,0.146-0.354S23.947,14.739,23.854,14.646z"/>
</g>
</svg>
