<?xml version="1.0" encoding="UTF-8"?>
<svg width="11px" height="11px" viewBox="0 0 11 11" version="1.1" xmlns="http://www.w3.org/2000/svg" xmlns:xlink="http://www.w3.org/1999/xlink">
    <!-- Generator: Sketch 63.1 (92452) - https://sketch.com -->
    <title>Path-Copy</title>
    <desc>Created with Sketch.</desc>
    <g id="Overstyring-vedtak" stroke="none" stroke-width="1" fill="none" fill-rule="evenodd">
        <path d="M10.1586804,0 C10.1569876,0 10.1552948,0 10.153602,0 L5.498413,0 C5.03035491,0 4.652015,0.378230769 4.652015,0.846153846 C4.652015,1.31323077 5.03035491,1.69230769 5.498413,1.69230769 L8.11039723,1.69230769 L0.248206213,9.55561538 C-0.0827354044,9.88646154 -0.0827354044,10.4212308 0.248206213,10.7520769 C0.413253823,10.9170769 0.629931711,11 0.846609599,11 C1.06328749,11 1.27996537,10.9170769 1.44501298,10.7520769 L9.307204,2.88961538 L9.307204,5.5 C9.307204,5.96707692 9.68554391,6.34615385 10.153602,6.34615385 C10.6216601,6.34615385 11,5.96707692 11,5.5 L11,0.846153846 C11,0.418846154 10.6631336,0.00846153846 10.1586804,0 Z" id="Path-Copy" fill="#0067C5" fill-rule="nonzero"></path>
    </g>
</svg>