<?xml version="1.0" encoding="UTF-8"?>
<svg width="26px" height="26px" viewBox="0 0 26 26" version="1.1" xmlns="http://www.w3.org/2000/svg" xmlns:xlink="http://www.w3.org/1999/xlink">
    <!-- Generator: Sketch 51.2 (57519) - http://www.bohemiancoding.com/sketch -->
    <title>hjelpetekst/ikon/Normal</title>
    <desc>Created with Sketch.</desc>
    <defs>
        <path d="M13,0 C20.1673333,0 26,5.83158333 26,13 C26,20.1684167 20.1673333,26 13,26 C5.83158333,26 0,20.1684167 0,13 C0,5.83158333 5.83158333,0 13,0 Z M13,20.5833333 C13.5969167,20.5833333 14.0833333,20.0990833 14.0833333,19.5 C14.0833333,18.902 13.5969167,18.4166667 13,18.4166667 C12.4009167,18.4166667 11.9166667,18.902 11.9166667,19.5 C11.9166667,20.0990833 12.4009167,20.5833333 13,20.5833333 Z M13.5416667,14.0454167 C15.37575,13.7810833 16.7916667,12.1983333 16.7916667,10.2916667 C16.7916667,8.20083333 15.0908333,6.5 13,6.5 C10.9080833,6.5 9.20833333,8.20083333 9.20833333,10.2916667 C9.20833333,10.5906667 9.451,10.8333333 9.75,10.8333333 C10.0479167,10.8333333 10.2916667,10.5906667 10.2916667,10.2916667 C10.2916667,8.79775 11.5060833,7.58333333 13,7.58333333 C14.4928333,7.58333333 15.7083333,8.79775 15.7083333,10.2916667 C15.7083333,11.7855833 14.4928333,13 13,13 C12.701,13 12.4583333,13.2426667 12.4583333,13.5416667 L12.4583333,16.7916667 C12.4583333,17.0906667 12.701,17.3333333 13,17.3333333 C13.2979167,17.3333333 13.5416667,17.0906667 13.5416667,16.7916667 L13.5416667,14.0454167 Z" id="path-1"></path>
    </defs>
    <g id="Uttaksperioder" stroke="none" stroke-width="1" fill="none" fill-rule="evenodd">
        <g id="Overlay-forklaring" transform="translate(-967.000000, -561.000000)">
            <g id="uttak-copy-2" transform="translate(65.000000, 422.000000)">
                <g id="hjelpetekst/ikon/hover" transform="translate(902.000000, 139.000000)">
                    <g id="icon/line/alerts/-help-circle-copy">
                        <mask id="mask-2" fill="white">
                            <use xlink:href="#path-1"></use>
                        </mask>
                        <use id="Mask" fill="#0067C5" xlink:href="#path-1"></use>
                        <g id="X⚙️/-interaksjonsfarge/-interaksjon" mask="url(#mask-2)" fill="#0067C5">
                            <rect id="Rectangle-3" x="0" y="0" width="26" height="26"></rect>
                        </g>
                    </g>
                </g>
            </g>
        </g>
    </g>
</svg>